<?xml version="1.0" encoding="UTF-8" ?>
<svg xmlns="http://www.w3.org/2000/svg" xmlns:xlink="http://www.w3.org/1999/xlink" width="2485pt" height="903pt" viewBox="0.00 0.00 2485.00 903.40">
<g id="graph0" class="graph" transform="scale(1 1) rotate(0) translate(4 899.4)">
<title>%0</title>
<polygon fill="#ffffff" stroke="transparent" points="-4,4 -4,-899.4 2481,-899.4 2481,4 -4,4"/>
<g id="clust1" class="cluster">
<title>cluster_Applicative</title>
<polygon fill="none" stroke="#000000" stroke-dasharray="1,5" points="8,-230 8,-887.4 886,-887.4 886,-230 8,-230"/>
<text text-anchor="middle" x="447" y="-870.8" font-family="Times,serif" font-size="14.00" fill="#000000">Applicative model</text>
</g>
<g id="clust4" class="cluster">
<title>cluster_StateMachine</title>
<polygon fill="none" stroke="#000000" stroke-dasharray="1,5" points="894,-8 894,-887.4 2469,-887.4 2469,-8 894,-8"/>
<text text-anchor="middle" x="1681.5" y="-870.8" font-family="Times,serif" font-size="14.00" fill="#000000">State machine</text>
</g>
<!-- Balance -->
<g id="node1" class="node">
<title>Balance</title>
<ellipse fill="none" stroke="#000000" cx="480" cy="-836.6" rx="42.2719" ry="18"/>
<text text-anchor="middle" x="480" y="-832.4" font-family="Times,serif" font-size="14.00" fill="#000000">Balance</text>
</g>
<!-- Withdraw -->
<g id="node2" class="node">
<title>Withdraw</title>
<ellipse fill="none" stroke="#000000" cx="480" cy="-709.8" rx="49.7981" ry="18"/>
<text text-anchor="middle" x="480" y="-705.6" font-family="Times,serif" font-size="14.00" fill="#000000">Withdraw</text>
</g>
<!-- Balance&#45;&gt;Withdraw -->
<g id="edge1" class="edge">
<title>Balance-&gt;Withdraw</title>
<path fill="none" stroke="#000000" d="M480,-818.4327C480,-797.4352 480,-762.6261 480,-738.079"/>
<polygon fill="#000000" stroke="#000000" points="483.5001,-737.9336 480,-727.9336 476.5001,-737.9337 483.5001,-737.9336"/>
<text text-anchor="middle" x="510.7111" y="-769" font-family="Times,serif" font-size="14.00" fill="#000000">Withdraws</text>
</g>
<!-- Order -->
<g id="node3" class="node">
<title>Order</title>
<ellipse fill="none" stroke="#000000" cx="470" cy="-493.8" rx="33.6054" ry="18"/>
<text text-anchor="middle" x="470" y="-489.6" font-family="Times,serif" font-size="14.00" fill="#000000">Order</text>
</g>
<!-- Withdraw&#45;&gt;Order -->
<g id="edge2" class="edge">
<title>Withdraw-&gt;Order</title>
<path fill="none" stroke="#000000" d="M479.1646,-691.7555C477.4256,-654.1938 473.4053,-567.3541 471.3153,-522.2103"/>
<polygon fill="#000000" stroke="#000000" points="474.7989,-521.7725 470.84,-511.9451 467.8064,-522.0963 474.7989,-521.7725"/>
<text text-anchor="middle" x="505.7111" y="-597.6" font-family="Times,serif" font-size="14.00" fill="#000000">Withdraws</text>
</g>
<!-- Cancel -->
<g id="node4" class="node">
<title>Cancel</title>
<ellipse fill="none" stroke="#000000" cx="504" cy="-367" rx="37.6986" ry="18"/>
<text text-anchor="middle" x="504" y="-362.8" font-family="Times,serif" font-size="14.00" fill="#000000">Cancel</text>
</g>
<!-- Order&#45;&gt;Cancel -->
<g id="edge3" class="edge">
<title>Order-&gt;Cancel</title>
<path fill="none" stroke="#000000" d="M472.7749,-475.6212C475.1964,-460.9977 479.1025,-439.9944 484.0932,-422 486.59,-412.9974 489.8632,-403.3622 493.0323,-394.7117"/>
<polygon fill="#000000" stroke="#000000" points="496.4009,-395.6979 496.652,-385.106 489.8505,-393.2295 496.4009,-395.6979"/>
<text text-anchor="middle" x="519.9534" y="-426.2" font-family="Times,serif" font-size="14.00" fill="#000000">Cancel order</text>
</g>
<!-- Commit -->
<g id="node5" class="node">
<title>Commit</title>
<ellipse fill="none" stroke="#000000" cx="405" cy="-367" rx="42.8945" ry="18"/>
<text text-anchor="middle" x="405" y="-362.8" font-family="Times,serif" font-size="14.00" fill="#000000">Commit</text>
</g>
<!-- Order&#45;&gt;Commit -->
<g id="edge9" class="edge">
<title>Order-&gt;Commit</title>
<path fill="none" stroke="#000000" d="M461.0983,-476.4349C450.1843,-455.1441 431.567,-418.826 418.7941,-393.9091"/>
<polygon fill="#000000" stroke="#000000" points="421.8896,-392.2751 414.2132,-384.9728 415.6604,-395.4684 421.8896,-392.2751"/>
</g>
<!-- Cancel&#45;&gt;Balance -->
<g id="edge4" class="edge">
<title>Cancel-&gt;Balance</title>
<path fill="none" stroke="#000000" d="M540.2233,-372.3096C592.5276,-381.0113 683,-400.399 683,-430.4 683,-773.2 683,-773.2 683,-773.2 683,-804.9615 591.3126,-822.6672 531.1763,-830.8643"/>
<polygon fill="#000000" stroke="#000000" points="530.5382,-827.418 521.0801,-832.1924 531.4512,-834.3582 530.5382,-827.418"/>
<text text-anchor="middle" x="718.9534" y="-597.6" font-family="Times,serif" font-size="14.00" fill="#000000">Cancel order</text>
</g>
<!-- Commit&#45;&gt;Balance -->
<g id="edge10" class="edge">
<title>Commit-&gt;Balance</title>
<path fill="none" stroke="#000000" d="M407.6142,-384.9936C409.2311,-397.6614 411,-415.032 411,-430.4 411,-773.2 411,-773.2 411,-773.2 411,-792.554 425.9017,-807.6119 441.8548,-818.1867"/>
<polygon fill="#000000" stroke="#000000" points="440.377,-821.3848 450.7378,-823.5993 444.0193,-815.407 440.377,-821.3848"/>
</g>
<!-- CommitToBalanceLeft -->
<g id="node6" class="node">
<title>CommitToBalanceLeft</title>
<ellipse fill="none" stroke="#000000" cx="337" cy="-256" rx="100.7172" ry="18"/>
<text text-anchor="middle" x="337" y="-251.8" font-family="Times,serif" font-size="14.00" fill="#000000">CommitToBalanceLeft</text>
</g>
<!-- Commit&#45;&gt;CommitToBalanceLeft -->
<g id="edge11" class="edge">
<title>Commit-&gt;CommitToBalanceLeft</title>
<path fill="none" stroke="#000000" d="M394.0746,-349.1659C383.0863,-331.229 366.0096,-303.3539 353.3963,-282.7646"/>
<polygon fill="#000000" stroke="#000000" points="356.3325,-280.8573 348.1242,-274.1586 350.3635,-284.5141 356.3325,-280.8573"/>
</g>
<!-- CommitToBalanceRight -->
<g id="node7" class="node">
<title>CommitToBalanceRight</title>
<ellipse fill="none" stroke="#000000" cx="562" cy="-256" rx="105.9768" ry="18"/>
<text text-anchor="middle" x="562" y="-251.8" font-family="Times,serif" font-size="14.00" fill="#000000">CommitToBalanceRight</text>
</g>
<!-- Commit&#45;&gt;CommitToBalanceRight -->
<g id="edge12" class="edge">
<title>Commit-&gt;CommitToBalanceRight</title>
<path fill="none" stroke="#000000" d="M427.1613,-351.3318C453.6621,-332.5956 498.2682,-301.0588 528.869,-279.4238"/>
<polygon fill="#000000" stroke="#000000" points="530.9571,-282.234 537.1019,-273.6031 526.916,-276.5182 530.9571,-282.234"/>
</g>
<!-- ExcessToBalanceLeft -->
<g id="node8" class="node">
<title>ExcessToBalanceLeft</title>
<ellipse fill="none" stroke="#000000" cx="782" cy="-256" rx="95.5221" ry="18"/>
<text text-anchor="middle" x="782" y="-251.8" font-family="Times,serif" font-size="14.00" fill="#000000">ExcessToBalanceLeft</text>
</g>
<!-- Commit&#45;&gt;ExcessToBalanceLeft -->
<g id="edge13" class="edge">
<title>Commit-&gt;ExcessToBalanceLeft</title>
<path fill="none" stroke="#000000" d="M437.6417,-355.3965C444.0394,-353.2085 450.7144,-350.9856 457,-349 546.5592,-320.7086 651.1533,-291.4453 716.9854,-273.4813"/>
<polygon fill="#000000" stroke="#000000" points="718.0811,-276.8104 726.8101,-270.8057 716.2418,-270.0564 718.0811,-276.8104"/>
</g>
<!-- ExcessToBalanceRight -->
<g id="node9" class="node">
<title>ExcessToBalanceRight</title>
<ellipse fill="none" stroke="#000000" cx="117" cy="-256" rx="101.2815" ry="18"/>
<text text-anchor="middle" x="117" y="-251.8" font-family="Times,serif" font-size="14.00" fill="#000000">ExcessToBalanceRight</text>
</g>
<!-- Commit&#45;&gt;ExcessToBalanceRight -->
<g id="edge14" class="edge">
<title>Commit-&gt;ExcessToBalanceRight</title>
<path fill="none" stroke="#000000" d="M373.3551,-354.8035C324.0788,-335.8116 228.5033,-298.9752 168.9949,-276.0397"/>
<polygon fill="#000000" stroke="#000000" points="169.9956,-272.6745 159.4059,-272.3439 167.4781,-279.2061 169.9956,-272.6745"/>
</g>
<!-- CommitToBalanceLeft&#45;&gt;Balance -->
<g id="edge5" class="edge">
<title>CommitToBalanceLeft-&gt;Balance</title>
<path fill="none" stroke="#000000" d="M309.9203,-273.5304C298.5879,-283.1366 288,-296.2045 288,-311.5 288,-773.2 288,-773.2 288,-773.2 288,-803.0038 372.4735,-821.1638 429.3581,-830.0139"/>
<polygon fill="#000000" stroke="#000000" points="428.8721,-833.4801 439.2817,-831.5079 429.9142,-826.5581 428.8721,-833.4801"/>
<text text-anchor="middle" x="340.0989" y="-489.6" font-family="Times,serif" font-size="14.00" fill="#000000">Results to Balance</text>
</g>
<!-- CommitToBalanceRight&#45;&gt;Balance -->
<g id="edge6" class="edge">
<title>CommitToBalanceRight-&gt;Balance</title>
<path fill="none" stroke="#000000" d="M561.5,-274.4985C561.25,-285.2897 561,-299.1647 561,-311.5 561,-403.5 561,-403.5 561,-403.5 561,-443.6358 560,-453.6642 560,-493.8 560,-773.2 560,-773.2 560,-773.2 560,-795.0771 541.3968,-810.5979 522.1323,-820.8055"/>
<polygon fill="#000000" stroke="#000000" points="520.4543,-817.7297 513.0009,-825.2595 523.5232,-824.0212 520.4543,-817.7297"/>
<text text-anchor="middle" x="612.0989" y="-489.6" font-family="Times,serif" font-size="14.00" fill="#000000">Results to Balance</text>
</g>
<!-- ExcessToBalanceLeft&#45;&gt;Balance -->
<g id="edge7" class="edge">
<title>ExcessToBalanceLeft-&gt;Balance</title>
<path fill="none" stroke="#000000" d="M778,-274.4044C776,-285.1642 774,-299.0392 774,-311.5 774,-773.2 774,-773.2 774,-773.2 774,-797.7609 615.1868,-820.4662 531.0063,-830.7762"/>
<polygon fill="#000000" stroke="#000000" points="530.3869,-827.3255 520.8794,-832.0008 531.2273,-834.2749 530.3869,-827.3255"/>
<text text-anchor="middle" x="826.0989" y="-489.6" font-family="Times,serif" font-size="14.00" fill="#000000">Results to Balance</text>
</g>
<!-- ExcessToBalanceRight&#45;&gt;Balance -->
<g id="edge8" class="edge">
<title>ExcessToBalanceRight-&gt;Balance</title>
<path fill="none" stroke="#000000" d="M125,-274.1233C129,-284.7894 133,-298.6644 133,-311.5 133,-773.2 133,-773.2 133,-773.2 133,-802.8545 331.6436,-823.9291 428.339,-832.4311"/>
<polygon fill="#000000" stroke="#000000" points="428.2236,-835.9341 438.4884,-833.3102 428.8277,-828.9602 428.2236,-835.9341"/>
<text text-anchor="middle" x="185.0989" y="-489.6" font-family="Times,serif" font-size="14.00" fill="#000000">Results to Balance</text>
</g>
<!-- CreateBalance -->
<g id="node10" class="node">
<title>CreateBalance</title>
<ellipse fill="none" stroke="#000000" cx="2394" cy="-836.6" rx="67.1695" ry="18"/>
<text text-anchor="middle" x="2394" y="-832.4" font-family="Times,serif" font-size="14.00" fill="#000000">CreateBalance</text>
</g>
<!-- CreateBalanceOrigin.Single -->
<g id="node11" class="node">
<title>CreateBalanceOrigin.Single</title>
<ellipse fill="none" stroke="#000000" cx="2301" cy="-709.8" rx="119.7772" ry="18"/>
<text text-anchor="middle" x="2301" y="-705.6" font-family="Times,serif" font-size="14.00" fill="#000000">CreateBalanceOrigin.Single</text>
</g>
<!-- CreateBalance&#45;&gt;CreateBalanceOrigin.Single -->
<g id="edge15" class="edge">
<title>CreateBalance-&gt;CreateBalanceOrigin.Single</title>
<path fill="none" stroke="#000000" d="M2419.478,-819.7039C2425.213,-813.7598 2428.6579,-806.7653 2425,-799.6 2409.3646,-768.9721 2377.863,-746.3662 2350.525,-731.4965"/>
<polygon fill="#000000" stroke="#000000" points="2351.9263,-728.2797 2341.4425,-726.7499 2348.6841,-734.4836 2351.9263,-728.2797"/>
</g>
<!-- SplitBalance.Spendable -->
<g id="node16" class="node">
<title>SplitBalance.Spendable</title>
<ellipse fill="none" stroke="#000000" cx="2358" cy="-601.8" rx="103.0475" ry="18"/>
<text text-anchor="middle" x="2358" y="-597.6" font-family="Times,serif" font-size="14.00" fill="#000000">SplitBalance.Spendable</text>
</g>
<!-- CreateBalance&#45;&gt;SplitBalance.Spendable -->
<g id="edge20" class="edge">
<title>CreateBalance-&gt;SplitBalance.Spendable</title>
<path fill="none" stroke="#000000" d="M2415.3953,-819.2836C2420.9029,-813.8408 2426.3099,-807.4471 2430,-800.6 2453.1576,-757.6299 2463.2971,-737.054 2445,-691.8 2434.189,-665.0614 2411.2054,-641.8582 2391.5757,-625.711"/>
<polygon fill="#000000" stroke="#000000" points="2393.7004,-622.9288 2383.6937,-619.4478 2389.3455,-628.4093 2393.7004,-622.9288"/>
</g>
<!-- SplitBalance.Excess -->
<g id="node17" class="node">
<title>SplitBalance.Excess</title>
<ellipse fill="none" stroke="#000000" cx="2236" cy="-547.8" rx="89.7206" ry="18"/>
<text text-anchor="middle" x="2236" y="-543.6" font-family="Times,serif" font-size="14.00" fill="#000000">SplitBalance.Excess</text>
</g>
<!-- CreateBalance&#45;&gt;SplitBalance.Excess -->
<g id="edge21" class="edge">
<title>CreateBalance-&gt;SplitBalance.Excess</title>
<path fill="none" stroke="#000000" d="M2407.0055,-818.4981C2426.185,-789.3748 2457.0159,-731.382 2430,-691.8 2417.6237,-673.6671 2259.597,-637.0365 2246,-619.8 2236.4704,-607.7197 2233.7497,-590.815 2233.5138,-576.4212"/>
<polygon fill="#000000" stroke="#000000" points="2237.0218,-576.1009 2233.7462,-566.0251 2230.0235,-575.9444 2237.0218,-576.1009"/>
</g>
<!-- StateBalance.Single -->
<g id="node20" class="node">
<title>StateBalance.Single</title>
<ellipse fill="none" stroke="#000000" cx="1922" cy="-655.8" rx="88.5767" ry="18"/>
<text text-anchor="middle" x="1922" y="-651.6" font-family="Times,serif" font-size="14.00" fill="#000000">StateBalance.Single</text>
</g>
<!-- CreateBalance&#45;&gt;StateBalance.Single -->
<g id="edge26" class="edge">
<title>CreateBalance-&gt;StateBalance.Single</title>
<path fill="none" stroke="#000000" d="M2328.7485,-832.0558C2207.2816,-822.0934 1953.9735,-793.7389 1901,-727.8 1890.6675,-714.9386 1895.7069,-697.1712 1903.4332,-682.5046"/>
<polygon fill="#000000" stroke="#000000" points="1906.4685,-684.2474 1908.4777,-673.8448 1900.4199,-680.724 1906.4685,-684.2474"/>
</g>
<!-- CreateBalanceOrigin -->
<g id="node14" class="node">
<title>CreateBalanceOrigin</title>
<ellipse fill="none" stroke="#000000" cx="2124" cy="-493.8" rx="92.59" ry="18"/>
<text text-anchor="middle" x="2124" y="-489.6" font-family="Times,serif" font-size="14.00" fill="#000000">CreateBalanceOrigin</text>
</g>
<!-- CreateBalanceOrigin.Single&#45;&gt;CreateBalanceOrigin -->
<g id="edge17" class="edge">
<title>CreateBalanceOrigin.Single-&gt;CreateBalanceOrigin</title>
<path fill="none" stroke="#000000" d="M2273.0736,-692.2576C2237.1484,-668.2001 2175.4082,-621.5433 2142,-565.8 2134.0827,-552.5896 2129.6346,-536.0186 2127.1422,-522.1053"/>
<polygon fill="#000000" stroke="#000000" points="2130.5796,-521.4311 2125.5923,-512.0835 2123.6618,-522.5009 2130.5796,-521.4311"/>
</g>
<!-- StateMachine.Commit -->
<g id="node12" class="node">
<title>StateMachine.Commit</title>
<ellipse fill="none" stroke="#000000" cx="1871" cy="-836.6" rx="98.4103" ry="18"/>
<text text-anchor="middle" x="1871" y="-832.4" font-family="Times,serif" font-size="14.00" fill="#000000">StateMachine.Commit</text>
</g>
<!-- CreateBalanceOrigin.Commit -->
<g id="node13" class="node">
<title>CreateBalanceOrigin.Commit</title>
<ellipse fill="none" stroke="#000000" cx="2037" cy="-709.8" rx="126.7391" ry="18"/>
<text text-anchor="middle" x="2037" y="-705.6" font-family="Times,serif" font-size="14.00" fill="#000000">CreateBalanceOrigin.Commit</text>
</g>
<!-- StateMachine.Commit&#45;&gt;CreateBalanceOrigin.Commit -->
<g id="edge16" class="edge">
<title>StateMachine.Commit-&gt;CreateBalanceOrigin.Commit</title>
<path fill="none" stroke="#000000" d="M1875.7522,-818.363C1878.0759,-811.9261 1881.393,-804.9629 1886,-799.6 1912.3199,-768.9612 1951.8163,-745.9911 1983.8138,-730.9544"/>
<polygon fill="#000000" stroke="#000000" points="1985.4097,-734.0733 1993.0504,-726.7336 1982.5003,-727.7065 1985.4097,-734.0733"/>
</g>
<!-- CreateBalanceOrigin.Commit&#45;&gt;CreateBalanceOrigin -->
<g id="edge18" class="edge">
<title>CreateBalanceOrigin.Commit-&gt;CreateBalanceOrigin</title>
<path fill="none" stroke="#000000" d="M2044.2679,-691.7555C2059.4929,-653.9556 2094.8185,-566.2506 2112.9009,-521.3564"/>
<polygon fill="#000000" stroke="#000000" points="2116.202,-522.5286 2116.6916,-511.9451 2109.7088,-519.9133 2116.202,-522.5286"/>
</g>
<!-- SplitBalance.Input -->
<g id="node15" class="node">
<title>SplitBalance.Input</title>
<ellipse fill="none" stroke="#000000" cx="2129" cy="-367" rx="83.3636" ry="18"/>
<text text-anchor="middle" x="2129" y="-362.8" font-family="Times,serif" font-size="14.00" fill="#000000">SplitBalance.Input</text>
</g>
<!-- CreateBalanceOrigin&#45;&gt;SplitBalance.Input -->
<g id="edge19" class="edge">
<title>CreateBalanceOrigin-&gt;SplitBalance.Input</title>
<path fill="none" stroke="#000000" d="M2124.7164,-475.6327C2125.5444,-454.6352 2126.917,-419.8261 2127.8849,-395.279"/>
<polygon fill="#000000" stroke="#000000" points="2131.3881,-395.2638 2128.285,-385.1336 2124.3936,-394.9879 2131.3881,-395.2638"/>
</g>
<!-- SplitBalance -->
<g id="node18" class="node">
<title>SplitBalance</title>
<ellipse fill="none" stroke="#000000" cx="2209" cy="-256" rx="60.2672" ry="18"/>
<text text-anchor="middle" x="2209" y="-251.8" font-family="Times,serif" font-size="14.00" fill="#000000">SplitBalance</text>
</g>
<!-- SplitBalance.Input&#45;&gt;SplitBalance -->
<g id="edge22" class="edge">
<title>SplitBalance.Input-&gt;SplitBalance</title>
<path fill="none" stroke="#000000" d="M2141.8534,-349.1659C2154.9161,-331.0413 2175.2923,-302.7695 2190.1742,-282.1207"/>
<polygon fill="#000000" stroke="#000000" points="2193.171,-283.9488 2196.1785,-273.7898 2187.4922,-279.856 2193.171,-283.9488"/>
</g>
<!-- SplitBalance.Spendable&#45;&gt;SplitBalance -->
<g id="edge23" class="edge">
<title>SplitBalance.Spendable-&gt;SplitBalance</title>
<path fill="none" stroke="#000000" d="M2354.4477,-583.5356C2350.5986,-562.1243 2345,-525.5274 2345,-493.8 2345,-493.8 2345,-493.8 2345,-311.5 2345,-293.7673 2304.8635,-278.9219 2268.1988,-269.0601"/>
<polygon fill="#000000" stroke="#000000" points="2269.0426,-265.6632 2258.4838,-266.5372 2267.283,-272.4385 2269.0426,-265.6632"/>
</g>
<!-- SplitBalance.Excess&#45;&gt;SplitBalance -->
<g id="edge24" class="edge">
<title>SplitBalance.Excess-&gt;SplitBalance</title>
<path fill="none" stroke="#000000" d="M2236,-529.7707C2236,-511.5057 2236,-482.4389 2236,-457.3 2236,-457.3 2236,-457.3 2236,-311.5 2236,-301.5852 2232.4726,-291.5869 2227.9676,-282.8609"/>
<polygon fill="#000000" stroke="#000000" points="2230.8532,-280.8592 2222.8164,-273.9556 2224.794,-284.3643 2230.8532,-280.8592"/>
</g>
<!-- StateBalance.Split -->
<g id="node19" class="node">
<title>StateBalance.Split</title>
<ellipse fill="none" stroke="#000000" cx="2091" cy="-145" rx="82.2137" ry="18"/>
<text text-anchor="middle" x="2091" y="-140.8" font-family="Times,serif" font-size="14.00" fill="#000000">StateBalance.Split</text>
</g>
<!-- SplitBalance&#45;&gt;StateBalance.Split -->
<g id="edge25" class="edge">
<title>SplitBalance-&gt;StateBalance.Split</title>
<path fill="none" stroke="#000000" d="M2190.5625,-238.6563C2170.8483,-220.1115 2139.4234,-190.5508 2117.1571,-169.6054"/>
<polygon fill="#000000" stroke="#000000" points="2119.3794,-166.8907 2109.6975,-162.5883 2114.5832,-171.9894 2119.3794,-166.8907"/>
</g>
<!-- StateBalance -->
<g id="node21" class="node">
<title>StateBalance</title>
<ellipse fill="none" stroke="#000000" cx="1992" cy="-34" rx="61.3896" ry="18"/>
<text text-anchor="middle" x="1992" y="-29.8" font-family="Times,serif" font-size="14.00" fill="#000000">StateBalance</text>
</g>
<!-- StateBalance.Split&#45;&gt;StateBalance -->
<g id="edge27" class="edge">
<title>StateBalance.Split-&gt;StateBalance</title>
<path fill="none" stroke="#000000" d="M2075.0939,-127.1659C2058.6153,-108.6899 2032.7321,-79.6693 2014.2334,-58.9284"/>
<polygon fill="#000000" stroke="#000000" points="2016.8084,-56.5572 2007.5402,-51.4238 2011.5843,-61.2165 2016.8084,-56.5572"/>
</g>
<!-- StateBalance.Single&#45;&gt;StateBalance -->
<g id="edge28" class="edge">
<title>StateBalance.Single-&gt;StateBalance</title>
<path fill="none" stroke="#000000" d="M1930.3567,-637.4996C1939.2334,-616.356 1952,-580.2981 1952,-547.8 1952,-547.8 1952,-547.8 1952,-89.5 1952,-78.2241 1957.5012,-67.6787 1964.4233,-58.8727"/>
<polygon fill="#000000" stroke="#000000" points="1967.0997,-61.1292 1971.0628,-51.3035 1961.8373,-56.5131 1967.0997,-61.1292"/>
</g>
<!-- OrderCreated -->
<g id="node22" class="node">
<title>OrderCreated</title>
<ellipse fill="none" stroke="#000000" cx="1491" cy="-836.6" rx="63.66" ry="18"/>
<text text-anchor="middle" x="1491" y="-832.4" font-family="Times,serif" font-size="14.00" fill="#000000">OrderCreated</text>
</g>
<!-- Commit.Left -->
<g id="node23" class="node">
<title>Commit.Left</title>
<ellipse fill="none" stroke="#000000" cx="1811" cy="-709.8" rx="61.3919" ry="18"/>
<text text-anchor="middle" x="1811" y="-705.6" font-family="Times,serif" font-size="14.00" fill="#000000">Commit.Left</text>
</g>
<!-- OrderCreated&#45;&gt;Commit.Left -->
<g id="edge31" class="edge">
<title>OrderCreated-&gt;Commit.Left</title>
<path fill="none" stroke="#000000" d="M1552.9946,-832.5637C1615.0535,-827.6317 1705.5684,-817.7483 1736,-800.6 1762.3781,-785.7359 1783.335,-757.6852 1796.3162,-736.6775"/>
<polygon fill="#000000" stroke="#000000" points="1799.4449,-738.2638 1801.5468,-727.8795 1793.428,-734.6865 1799.4449,-738.2638"/>
</g>
<!-- Commit.Right -->
<g id="node24" class="node">
<title>Commit.Right</title>
<ellipse fill="none" stroke="#000000" cx="969" cy="-709.8" rx="66.6511" ry="18"/>
<text text-anchor="middle" x="969" y="-705.6" font-family="Times,serif" font-size="14.00" fill="#000000">Commit.Right</text>
</g>
<!-- OrderCreated&#45;&gt;Commit.Right -->
<g id="edge32" class="edge">
<title>OrderCreated-&gt;Commit.Right</title>
<path fill="none" stroke="#000000" d="M1442.3603,-824.7848C1346.3686,-801.4673 1132.8492,-749.6009 1028.5922,-724.2757"/>
<polygon fill="#000000" stroke="#000000" points="1029.3952,-720.869 1018.8516,-721.9095 1027.7428,-727.6712 1029.3952,-720.869"/>
</g>
<!-- Commit.Left_fulfilled -->
<g id="node25" class="node">
<title>Commit.Left_fulfilled</title>
<ellipse fill="none" stroke="#000000" cx="1151" cy="-709.8" rx="97.2642" ry="18"/>
<text text-anchor="middle" x="1151" y="-705.6" font-family="Times,serif" font-size="14.00" fill="#000000">Commit.Left_fulfilled</text>
</g>
<!-- OrderCreated&#45;&gt;Commit.Left_fulfilled -->
<g id="edge33" class="edge">
<title>OrderCreated-&gt;Commit.Left_fulfilled</title>
<path fill="none" stroke="#000000" d="M1452.3287,-822.1779C1391.4465,-799.4724 1273.1057,-755.3383 1204.2347,-729.6534"/>
<polygon fill="#000000" stroke="#000000" points="1205.0378,-726.2175 1194.4451,-726.0025 1202.5917,-732.7762 1205.0378,-726.2175"/>
</g>
<!-- Commit.Right_fulfilled -->
<g id="node26" class="node">
<title>Commit.Right_fulfilled</title>
<ellipse fill="none" stroke="#000000" cx="1369" cy="-709.8" rx="102.5238" ry="18"/>
<text text-anchor="middle" x="1369" y="-705.6" font-family="Times,serif" font-size="14.00" fill="#000000">Commit.Right_fulfilled</text>
</g>
<!-- OrderCreated&#45;&gt;Commit.Right_fulfilled -->
<g id="edge34" class="edge">
<title>OrderCreated-&gt;Commit.Right_fulfilled</title>
<path fill="none" stroke="#000000" d="M1474.0364,-818.969C1453.0318,-797.138 1417.1112,-759.8041 1393.2135,-734.9662"/>
<polygon fill="#000000" stroke="#000000" points="1395.6684,-732.4695 1386.2128,-727.69 1390.624,-737.3229 1395.6684,-732.4695"/>
</g>
<!-- Option&lt;OrderCreated&gt; -->
<g id="node27" class="node">
<title>Option&lt;OrderCreated&gt;</title>
<ellipse fill="none" stroke="#000000" cx="1611" cy="-709.8" rx="101.0907" ry="18"/>
<text text-anchor="middle" x="1611" y="-705.6" font-family="Times,serif" font-size="14.00" fill="#000000">Option&lt;OrderCreated&gt;</text>
</g>
<!-- OrderCreated&#45;&gt;Option&lt;OrderCreated&gt; -->
<g id="edge35" class="edge">
<title>OrderCreated-&gt;Option&lt;OrderCreated&gt;</title>
<path fill="none" stroke="#000000" d="M1507.6855,-818.969C1528.3458,-797.138 1563.6775,-759.8041 1587.1834,-734.9662"/>
<polygon fill="#000000" stroke="#000000" points="1589.7378,-737.359 1594.0694,-727.69 1584.6536,-732.5474 1589.7378,-737.359"/>
</g>
<!-- Commit.Excess_left -->
<g id="node28" class="node">
<title>Commit.Excess_left</title>
<ellipse fill="none" stroke="#000000" cx="1723" cy="-493.8" rx="89.7419" ry="18"/>
<text text-anchor="middle" x="1723" y="-489.6" font-family="Times,serif" font-size="14.00" fill="#000000">Commit.Excess_left</text>
</g>
<!-- OrderCreated&#45;&gt;Commit.Excess_left -->
<g id="edge36" class="edge">
<title>OrderCreated-&gt;Commit.Excess_left</title>
<path fill="none" stroke="#000000" d="M1553.1181,-832.4309C1624.2291,-825.9101 1731,-809.9932 1731,-773.2 1731,-773.2 1731,-773.2 1731,-601.8 1731,-574.7789 1728.4786,-544.0586 1726.2669,-522.3089"/>
<polygon fill="#000000" stroke="#000000" points="1729.7209,-521.6896 1725.186,-512.1144 1722.7599,-522.4277 1729.7209,-521.6896"/>
</g>
<!-- Commit.Excess_right -->
<g id="node29" class="node">
<title>Commit.Excess_right</title>
<ellipse fill="none" stroke="#000000" cx="1516" cy="-493.8" rx="94.9822" ry="18"/>
<text text-anchor="middle" x="1516" y="-489.6" font-family="Times,serif" font-size="14.00" fill="#000000">Commit.Excess_right</text>
</g>
<!-- OrderCreated&#45;&gt;Commit.Excess_right -->
<g id="edge37" class="edge">
<title>OrderCreated-&gt;Commit.Excess_right</title>
<path fill="none" stroke="#000000" d="M1491,-818.5635C1491,-805.8761 1491,-788.4997 1491,-773.2 1491,-773.2 1491,-773.2 1491,-601.8 1491,-573.8876 1499.0239,-542.9385 1505.9801,-521.352"/>
<polygon fill="#000000" stroke="#000000" points="1509.3055,-522.4437 1509.1686,-511.8497 1502.6692,-520.2167 1509.3055,-522.4437"/>
</g>
<!-- Option&lt;OrderCreated&gt;&#45;&gt;Commit.Excess_left -->
<g id="edge29" class="edge">
<title>Option&lt;OrderCreated&gt;-&gt;Commit.Excess_left</title>
<path fill="none" stroke="#000000" d="M1620.3564,-691.7555C1639.9976,-653.8762 1685.6242,-565.8818 1708.8579,-521.074"/>
<polygon fill="#000000" stroke="#000000" points="1712.0954,-522.4338 1713.5914,-511.9451 1705.8811,-519.2115 1712.0954,-522.4338"/>
</g>
<!-- Option&lt;OrderCreated&gt;&#45;&gt;Commit.Excess_right -->
<g id="edge30" class="edge">
<title>Option&lt;OrderCreated&gt;-&gt;Commit.Excess_right</title>
<path fill="none" stroke="#000000" d="M1603.0638,-691.7555C1586.4388,-653.9556 1547.8648,-566.2506 1528.1197,-521.3564"/>
<polygon fill="#000000" stroke="#000000" points="1531.2103,-519.6897 1523.9805,-511.9451 1524.8027,-522.508 1531.2103,-519.6897"/>
</g>
</g>
</svg>