<?xml version="1.0" encoding="UTF-8" ?>
<svg xmlns="http://www.w3.org/2000/svg" xmlns:xlink="http://www.w3.org/1999/xlink" width="1608pt" height="1630pt" viewBox="0.00 0.00 1608.00 1629.60">
<g id="graph0" class="graph" transform="scale(1 1) rotate(0) translate(4 1625.6)">
<title>%0</title>
<polygon fill="#ffffff" stroke="transparent" points="-4,4 -4,-1625.6 1604,-1625.6 1604,4 -4,4"/>
<g id="clust1" class="cluster">
<title>cluster_Applicative</title>
<polygon fill="none" stroke="#000000" stroke-dasharray="1,5" points="8,-1118 8,-1613.6 886,-1613.6 886,-1118 8,-1118"/>
<text text-anchor="middle" x="447" y="-1597" font-family="Times,serif" font-size="14.00" fill="#000000">Applicative model</text>
</g>
<g id="clust4" class="cluster">
<title>cluster_StateMachine</title>
<polygon fill="none" stroke="#000000" stroke-dasharray="1,5" points="894,-8 894,-1613.6 1592,-1613.6 1592,-8 894,-8"/>
<text text-anchor="middle" x="1243" y="-1597" font-family="Times,serif" font-size="14.00" fill="#000000">State machine</text>
</g>
<!-- Balance -->
<g id="node1" class="node">
<title>Balance</title>
<ellipse fill="none" stroke="#000000" cx="439" cy="-1562.8" rx="42.2719" ry="18"/>
<text text-anchor="middle" x="439" y="-1558.6" font-family="Times,serif" font-size="14.00" fill="#000000">Balance</text>
</g>
<!-- Withdraw -->
<g id="node2" class="node">
<title>Withdraw</title>
<ellipse fill="none" stroke="#000000" cx="66" cy="-1436" rx="49.7981" ry="18"/>
<text text-anchor="middle" x="66" y="-1431.8" font-family="Times,serif" font-size="14.00" fill="#000000">Withdraw</text>
</g>
<!-- Balance&#45;&gt;Withdraw -->
<g id="edge1" class="edge">
<title>Balance-&gt;Withdraw</title>
<path fill="none" stroke="#000000" d="M397.3309,-1559.4661C306.7565,-1551.7997 98.3656,-1531.7257 77.5778,-1507.8 67.3155,-1495.9887 64.2756,-1478.788 63.8705,-1464.1832"/>
<polygon fill="#000000" stroke="#000000" points="67.3709,-1464.1576 63.9756,-1454.1216 60.3713,-1464.0845 67.3709,-1464.1576"/>
<text text-anchor="middle" x="107.7111" y="-1495.2" font-family="Times,serif" font-size="14.00" fill="#000000">Withdraws</text>
</g>
<!-- Order -->
<g id="node3" class="node">
<title>Order</title>
<ellipse fill="none" stroke="#000000" cx="519" cy="-1436" rx="33.6054" ry="18"/>
<text text-anchor="middle" x="519" y="-1431.8" font-family="Times,serif" font-size="14.00" fill="#000000">Order</text>
</g>
<!-- Balance&#45;&gt;Order -->
<g id="edge2" class="edge">
<title>Balance-&gt;Order</title>
<path fill="none" stroke="#000000" d="M450.1237,-1545.169C463.8126,-1523.472 487.163,-1486.4617 502.8329,-1461.6248"/>
<polygon fill="#000000" stroke="#000000" points="505.8506,-1463.4011 508.2264,-1453.0761 499.9304,-1459.666 505.8506,-1463.4011"/>
<text text-anchor="middle" x="516.7837" y="-1495.2" font-family="Times,serif" font-size="14.00" fill="#000000">Create order</text>
</g>
<!-- Cancel -->
<g id="node4" class="node">
<title>Cancel</title>
<ellipse fill="none" stroke="#000000" cx="425" cy="-1255" rx="37.6986" ry="18"/>
<text text-anchor="middle" x="425" y="-1250.8" font-family="Times,serif" font-size="14.00" fill="#000000">Cancel</text>
</g>
<!-- Order&#45;&gt;Cancel -->
<g id="edge3" class="edge">
<title>Order-&gt;Cancel</title>
<path fill="none" stroke="#000000" d="M506.3519,-1419.0695C493.5737,-1401.4532 473.8114,-1372.7535 460.0932,-1346 449.5328,-1325.4048 440.2449,-1300.8597 433.8813,-1282.4541"/>
<polygon fill="#000000" stroke="#000000" points="437.1775,-1281.2754 430.6573,-1272.9245 430.5466,-1283.5187 437.1775,-1281.2754"/>
<text text-anchor="middle" x="495.9534" y="-1323.8" font-family="Times,serif" font-size="14.00" fill="#000000">Cancel order</text>
</g>
<!-- Commit -->
<g id="node5" class="node">
<title>Commit</title>
<ellipse fill="none" stroke="#000000" cx="590" cy="-1255" rx="42.8945" ry="18"/>
<text text-anchor="middle" x="590" y="-1250.8" font-family="Times,serif" font-size="14.00" fill="#000000">Commit</text>
</g>
<!-- Order&#45;&gt;Commit -->
<g id="edge9" class="edge">
<title>Order-&gt;Commit</title>
<path fill="none" stroke="#000000" d="M521.2337,-1417.7391C524.8096,-1392.5507 533.1963,-1346.1597 550,-1310 554.8264,-1299.614 561.7381,-1289.2023 568.4619,-1280.2755"/>
<polygon fill="#000000" stroke="#000000" points="571.3611,-1282.2503 574.7767,-1272.2211 565.8523,-1277.9313 571.3611,-1282.2503"/>
</g>
<!-- Cancel&#45;&gt;Balance -->
<g id="edge4" class="edge">
<title>Cancel-&gt;Balance</title>
<path fill="none" stroke="#000000" d="M420.0117,-1272.9171C410.9632,-1307.8793 393.7006,-1387.5888 404.0932,-1454 408.5413,-1482.4243 419.1529,-1513.5621 427.5168,-1535.2159"/>
<polygon fill="#000000" stroke="#000000" points="424.3528,-1536.7324 431.2881,-1544.7419 430.8613,-1534.1556 424.3528,-1536.7324"/>
<text text-anchor="middle" x="439.9534" y="-1431.8" font-family="Times,serif" font-size="14.00" fill="#000000">Cancel order</text>
</g>
<!-- Commit&#45;&gt;Balance -->
<g id="edge10" class="edge">
<title>Commit-&gt;Balance</title>
<path fill="none" stroke="#000000" d="M626.7239,-1264.2482C657.0029,-1274.3371 695,-1293.8091 695,-1328 695,-1499.4 695,-1499.4 695,-1499.4 695,-1540.9984 566.0305,-1555.4855 491.1713,-1560.3907"/>
<polygon fill="#000000" stroke="#000000" points="490.7512,-1556.9099 480.9865,-1561.0211 491.1837,-1563.8965 490.7512,-1556.9099"/>
</g>
<!-- CommitToBalanceLeft -->
<g id="node6" class="node">
<title>CommitToBalanceLeft</title>
<ellipse fill="none" stroke="#000000" cx="117" cy="-1144" rx="100.7172" ry="18"/>
<text text-anchor="middle" x="117" y="-1139.8" font-family="Times,serif" font-size="14.00" fill="#000000">CommitToBalanceLeft</text>
</g>
<!-- Commit&#45;&gt;CommitToBalanceLeft -->
<g id="edge11" class="edge">
<title>Commit-&gt;CommitToBalanceLeft</title>
<path fill="none" stroke="#000000" d="M556.3838,-1243.8574C548.7336,-1241.4689 540.6159,-1239.0497 533,-1237 416.2601,-1205.5806 279.1136,-1176.3904 195.1408,-1159.3784"/>
<polygon fill="#000000" stroke="#000000" points="195.6637,-1155.9135 185.1688,-1157.3648 194.2781,-1162.775 195.6637,-1155.9135"/>
</g>
<!-- CommitToBalanceRight -->
<g id="node7" class="node">
<title>CommitToBalanceRight</title>
<ellipse fill="none" stroke="#000000" cx="342" cy="-1144" rx="105.9768" ry="18"/>
<text text-anchor="middle" x="342" y="-1139.8" font-family="Times,serif" font-size="14.00" fill="#000000">CommitToBalanceRight</text>
</g>
<!-- Commit&#45;&gt;CommitToBalanceRight -->
<g id="edge12" class="edge">
<title>Commit-&gt;CommitToBalanceRight</title>
<path fill="none" stroke="#000000" d="M582.6305,-1237.0809C574.1322,-1217.2937 560.0445,-1187.2639 550,-1180 547.3824,-1178.107 484.5212,-1167.3738 428.5881,-1158.1152"/>
<polygon fill="#000000" stroke="#000000" points="429.0394,-1154.6424 418.6026,-1156.4656 427.8984,-1161.5488 429.0394,-1154.6424"/>
</g>
<!-- ExcessToBalanceLeft -->
<g id="node8" class="node">
<title>ExcessToBalanceLeft</title>
<ellipse fill="none" stroke="#000000" cx="562" cy="-1144" rx="95.5221" ry="18"/>
<text text-anchor="middle" x="562" y="-1139.8" font-family="Times,serif" font-size="14.00" fill="#000000">ExcessToBalanceLeft</text>
</g>
<!-- Commit&#45;&gt;ExcessToBalanceLeft -->
<g id="edge13" class="edge">
<title>Commit-&gt;ExcessToBalanceLeft</title>
<path fill="none" stroke="#000000" d="M585.3764,-1236.6706C580.9321,-1219.0521 574.1546,-1192.1843 569.0397,-1171.9073"/>
<polygon fill="#000000" stroke="#000000" points="572.3773,-1170.8285 566.5376,-1161.9883 565.5899,-1172.5407 572.3773,-1170.8285"/>
</g>
<!-- ExcessToBalanceRight -->
<g id="node9" class="node">
<title>ExcessToBalanceRight</title>
<ellipse fill="none" stroke="#000000" cx="777" cy="-1144" rx="101.2815" ry="18"/>
<text text-anchor="middle" x="777" y="-1139.8" font-family="Times,serif" font-size="14.00" fill="#000000">ExcessToBalanceRight</text>
</g>
<!-- Commit&#45;&gt;ExcessToBalanceRight -->
<g id="edge14" class="edge">
<title>Commit-&gt;ExcessToBalanceRight</title>
<path fill="none" stroke="#000000" d="M614.8322,-1240.2601C646.522,-1221.4495 701.6664,-1188.7168 738.7424,-1166.709"/>
<polygon fill="#000000" stroke="#000000" points="740.9413,-1169.474 747.754,-1161.3599 737.3682,-1163.4546 740.9413,-1169.474"/>
</g>
<!-- CommitToBalanceLeft&#45;&gt;Balance -->
<g id="edge5" class="edge">
<title>CommitToBalanceLeft-&gt;Balance</title>
<path fill="none" stroke="#000000" d="M130.8164,-1161.9556C137.4593,-1172.3432 144,-1185.9989 144,-1199.5 144,-1499.4 144,-1499.4 144,-1499.4 144,-1524.0408 303.3534,-1546.7086 387.8202,-1556.9931"/>
<polygon fill="#000000" stroke="#000000" points="387.6352,-1560.4959 397.9815,-1558.2145 388.4707,-1553.546 387.6352,-1560.4959"/>
<text text-anchor="middle" x="196.0989" y="-1323.8" font-family="Times,serif" font-size="14.00" fill="#000000">Results to Balance</text>
</g>
<!-- CommitToBalanceRight&#45;&gt;Balance -->
<g id="edge6" class="edge">
<title>CommitToBalanceRight-&gt;Balance</title>
<path fill="none" stroke="#000000" d="M308.9338,-1161.1359C295.9087,-1170.4223 284,-1183.3333 284,-1199.5 284,-1499.4 284,-1499.4 284,-1499.4 284,-1522.7806 345.1812,-1541.8078 390.6675,-1552.7231"/>
<polygon fill="#000000" stroke="#000000" points="390.1518,-1556.1967 400.6854,-1555.0589 391.7414,-1549.3795 390.1518,-1556.1967"/>
<text text-anchor="middle" x="336.0989" y="-1323.8" font-family="Times,serif" font-size="14.00" fill="#000000">Results to Balance</text>
</g>
<!-- ExcessToBalanceLeft&#45;&gt;Balance -->
<g id="edge7" class="edge">
<title>ExcessToBalanceLeft-&gt;Balance</title>
<path fill="none" stroke="#000000" d="M555.8238,-1162.2599C549.8951,-1180.8214 541.3601,-1210.5327 538,-1237 535.9849,-1252.8726 535.5903,-1257.1825 538,-1273 545.6427,-1323.1677 572,-1331.2535 572,-1382 572,-1499.4 572,-1499.4 572,-1499.4 572,-1519.1829 523.4457,-1538.2052 485.0112,-1550.1638"/>
<polygon fill="#000000" stroke="#000000" points="483.5492,-1546.9494 474.9917,-1553.1961 485.5768,-1553.6494 483.5492,-1546.9494"/>
<text text-anchor="middle" x="618.0989" y="-1323.8" font-family="Times,serif" font-size="14.00" fill="#000000">Results to Balance</text>
</g>
<!-- ExcessToBalanceRight&#45;&gt;Balance -->
<g id="edge8" class="edge">
<title>ExcessToBalanceRight-&gt;Balance</title>
<path fill="none" stroke="#000000" d="M764.8594,-1161.9193C758.9066,-1172.4047 753,-1186.1679 753,-1199.5 753,-1499.4 753,-1499.4 753,-1499.4 753,-1525.847 579.6375,-1547.9954 490.5434,-1557.6316"/>
<polygon fill="#000000" stroke="#000000" points="489.9451,-1554.1754 480.3729,-1558.7168 490.6879,-1561.1359 489.9451,-1554.1754"/>
<text text-anchor="middle" x="805.0989" y="-1323.8" font-family="Times,serif" font-size="14.00" fill="#000000">Results to Balance</text>
</g>
<!-- StateMachine.commit -->
<g id="node10" class="node">
<title>StateMachine.commit</title>
<ellipse fill="none" stroke="#000000" cx="1067" cy="-1255" rx="42.8945" ry="18"/>
<text text-anchor="middle" x="1067" y="-1250.8" font-family="Times,serif" font-size="14.00" fill="#000000">Commit</text>
</g>
<!-- CreateBalanceOrigin.commit -->
<g id="node11" class="node">
<title>CreateBalanceOrigin.commit</title>
<ellipse fill="none" stroke="#000000" cx="1120" cy="-1144" rx="124.432" ry="18"/>
<text text-anchor="middle" x="1120" y="-1139.8" font-family="Times,serif" font-size="14.00" fill="#000000">CreateBalanceOrigin.commit</text>
</g>
<!-- StateMachine.commit&#45;&gt;CreateBalanceOrigin.commit -->
<g id="edge15" class="edge">
<title>StateMachine.commit-&gt;CreateBalanceOrigin.commit</title>
<path fill="none" stroke="#000000" d="M1075.5154,-1237.1659C1084.003,-1219.3899 1097.1512,-1191.8531 1106.9551,-1171.3203"/>
<polygon fill="#000000" stroke="#000000" points="1110.1793,-1172.6908 1111.3297,-1162.1586 1103.8624,-1169.6746 1110.1793,-1172.6908"/>
</g>
<!-- CreateBalanceOrigin.Commit -->
<g id="node14" class="node">
<title>CreateBalanceOrigin.Commit</title>
<ellipse fill="none" stroke="#000000" cx="1389" cy="-1144" rx="126.7391" ry="18"/>
<text text-anchor="middle" x="1389" y="-1139.8" font-family="Times,serif" font-size="14.00" fill="#000000">CreateBalanceOrigin.Commit</text>
</g>
<!-- StateMachine.commit&#45;&gt;CreateBalanceOrigin.Commit -->
<g id="edge47" class="edge">
<title>StateMachine.commit-&gt;CreateBalanceOrigin.Commit</title>
<path fill="none" stroke="#000000" d="M1100.2469,-1243.5391C1154.6925,-1224.7706 1263.5388,-1187.2491 1330.9369,-1164.0155"/>
<polygon fill="#000000" stroke="#000000" points="1332.2554,-1167.2632 1340.5687,-1160.6952 1329.974,-1160.6454 1332.2554,-1167.2632"/>
</g>
<!-- CreateBalance -->
<g id="node12" class="node">
<title>CreateBalance</title>
<ellipse fill="none" stroke="#000000" cx="1305" cy="-1562.8" rx="67.1695" ry="18"/>
<text text-anchor="middle" x="1305" y="-1558.6" font-family="Times,serif" font-size="14.00" fill="#000000">CreateBalance</text>
</g>
<!-- CreateBalanceOrigin.Single -->
<g id="node13" class="node">
<title>CreateBalanceOrigin.Single</title>
<ellipse fill="none" stroke="#000000" cx="1444" cy="-1328" rx="119.7772" ry="18"/>
<text text-anchor="middle" x="1444" y="-1323.8" font-family="Times,serif" font-size="14.00" fill="#000000">CreateBalanceOrigin.Single</text>
</g>
<!-- CreateBalance&#45;&gt;CreateBalanceOrigin.Single -->
<g id="edge16" class="edge">
<title>CreateBalance-&gt;CreateBalanceOrigin.Single</title>
<path fill="none" stroke="#000000" d="M1307.3071,-1544.7291C1312.966,-1507.0073 1330.6943,-1418.8497 1378,-1364 1382.4101,-1358.8867 1387.7331,-1354.3698 1393.4199,-1350.4171"/>
<polygon fill="#000000" stroke="#000000" points="1395.3657,-1353.3278 1401.9483,-1345.026 1391.6253,-1347.4109 1395.3657,-1353.3278"/>
</g>
<!-- CreateBalance&#45;&gt;CreateBalanceOrigin.Commit -->
<g id="edge17" class="edge">
<title>CreateBalance-&gt;CreateBalanceOrigin.Commit</title>
<path fill="none" stroke="#000000" d="M1305,-1544.7635C1305,-1532.0761 1305,-1514.6997 1305,-1499.4 1305,-1499.4 1305,-1499.4 1305,-1199.5 1305,-1184.8723 1313.9768,-1173.8772 1326.0612,-1165.7029"/>
<polygon fill="#000000" stroke="#000000" points="1328.0395,-1168.5989 1334.8518,-1160.4845 1324.4661,-1162.5796 1328.0395,-1168.5989"/>
</g>
<!-- StateBalance.Single -->
<g id="node26" class="node">
<title>StateBalance.Single</title>
<ellipse fill="none" stroke="#000000" cx="1476" cy="-1382" rx="88.5767" ry="18"/>
<text text-anchor="middle" x="1476" y="-1377.8" font-family="Times,serif" font-size="14.00" fill="#000000">StateBalance.Single</text>
</g>
<!-- CreateBalance&#45;&gt;StateBalance.Single -->
<g id="edge31" class="edge">
<title>CreateBalance-&gt;StateBalance.Single</title>
<path fill="none" stroke="#000000" d="M1337.8676,-1546.9456C1347.792,-1541.335 1358.3418,-1534.4831 1367,-1526.8 1406.6282,-1491.6348 1441.2814,-1440.0863 1460.3606,-1408.9188"/>
<polygon fill="#000000" stroke="#000000" points="1463.3789,-1410.6911 1465.5452,-1400.3201 1457.3843,-1407.0766 1463.3789,-1410.6911"/>
</g>
<!-- Commit.excess_left -->
<g id="node33" class="node">
<title>Commit.excess_left</title>
<ellipse fill="none" stroke="#000000" cx="1198" cy="-1436" rx="88.0163" ry="18"/>
<text text-anchor="middle" x="1198" y="-1431.8" font-family="Times,serif" font-size="14.00" fill="#000000">Commit.excess_left</text>
</g>
<!-- CreateBalance&#45;&gt;Commit.excess_left -->
<g id="edge39" class="edge">
<title>CreateBalance-&gt;Commit.excess_left</title>
<path fill="none" stroke="#000000" stroke-dasharray="1,5" d="M1290.1221,-1545.169C1271.8588,-1523.5262 1240.7381,-1486.6466 1219.7808,-1461.8113"/>
<polygon fill="#000000" stroke="#000000" points="1222.2206,-1459.2754 1213.0965,-1453.89 1216.8708,-1463.7898 1222.2206,-1459.2754"/>
</g>
<!-- Commit.excess_right -->
<g id="node34" class="node">
<title>Commit.excess_right</title>
<ellipse fill="none" stroke="#000000" cx="999" cy="-1436" rx="93.2569" ry="18"/>
<text text-anchor="middle" x="999" y="-1431.8" font-family="Times,serif" font-size="14.00" fill="#000000">Commit.excess_right</text>
</g>
<!-- CreateBalance&#45;&gt;Commit.excess_right -->
<g id="edge40" class="edge">
<title>CreateBalance-&gt;Commit.excess_right</title>
<path fill="none" stroke="#000000" stroke-dasharray="1,5" d="M1268.3932,-1547.6309C1213.431,-1524.8557 1109.4961,-1481.7873 1048.0347,-1456.319"/>
<polygon fill="#000000" stroke="#000000" points="1049.1274,-1452.9832 1038.5492,-1452.3884 1046.4476,-1459.45 1049.1274,-1452.9832"/>
</g>
<!-- CreateBalanceOrigin -->
<g id="node15" class="node">
<title>CreateBalanceOrigin</title>
<ellipse fill="none" stroke="#000000" cx="1416" cy="-1033" rx="92.59" ry="18"/>
<text text-anchor="middle" x="1416" y="-1028.8" font-family="Times,serif" font-size="14.00" fill="#000000">CreateBalanceOrigin</text>
</g>
<!-- CreateBalanceOrigin.Single&#45;&gt;CreateBalanceOrigin -->
<g id="edge18" class="edge">
<title>CreateBalanceOrigin.Single-&gt;CreateBalanceOrigin</title>
<path fill="none" stroke="#000000" d="M1488.9668,-1311.2183C1511.8931,-1299.4596 1535,-1281.1274 1535,-1255 1535,-1255 1535,-1255 1535,-1088.5 1535,-1074.5218 1507.6909,-1061.1994 1479.2374,-1051.1125"/>
<polygon fill="#000000" stroke="#000000" points="1480.1765,-1047.7348 1469.582,-1047.8194 1477.9168,-1054.3601 1480.1765,-1047.7348"/>
</g>
<!-- CreateBalanceOrigin.Commit&#45;&gt;CreateBalanceOrigin -->
<g id="edge19" class="edge">
<title>CreateBalanceOrigin.Commit-&gt;CreateBalanceOrigin</title>
<path fill="none" stroke="#000000" d="M1393.4585,-1125.6706C1397.7441,-1108.0521 1404.2795,-1081.1843 1409.2117,-1060.9073"/>
<polygon fill="#000000" stroke="#000000" points="1412.6617,-1061.5323 1411.6245,-1050.9883 1405.86,-1059.8777 1412.6617,-1061.5323"/>
</g>
<!-- SplitBalance.input -->
<g id="node16" class="node">
<title>SplitBalance.input</title>
<ellipse fill="none" stroke="#000000" cx="1311" cy="-922" rx="82.8012" ry="18"/>
<text text-anchor="middle" x="1311" y="-917.8" font-family="Times,serif" font-size="14.00" fill="#000000">SplitBalance.input</text>
</g>
<!-- CreateBalanceOrigin&#45;&gt;SplitBalance.input -->
<g id="edge20" class="edge">
<title>CreateBalanceOrigin-&gt;SplitBalance.input</title>
<path fill="none" stroke="#000000" d="M1399.1299,-1015.1659C1381.7554,-996.7986 1354.5233,-968.0104 1334.9279,-947.2952"/>
<polygon fill="#000000" stroke="#000000" points="1337.2429,-944.6493 1327.8282,-939.7898 1332.1576,-949.4597 1337.2429,-944.6493"/>
</g>
<!-- Withdrawal -->
<g id="node25" class="node">
<title>Withdrawal</title>
<ellipse fill="none" stroke="#000000" cx="1468" cy="-922" rx="56.7387" ry="18"/>
<text text-anchor="middle" x="1468" y="-917.8" font-family="Times,serif" font-size="14.00" fill="#000000">Withdrawal</text>
</g>
<!-- CreateBalanceOrigin&#45;&gt;Withdrawal -->
<g id="edge30" class="edge">
<title>CreateBalanceOrigin-&gt;Withdrawal</title>
<path fill="none" stroke="#000000" d="M1424.5867,-1014.6706C1432.9541,-996.8096 1445.7744,-969.4431 1455.3167,-949.0739"/>
<polygon fill="#000000" stroke="#000000" points="1458.5002,-950.5287 1459.573,-939.9883 1452.1613,-947.5591 1458.5002,-950.5287"/>
</g>
<!-- SplitBalance -->
<g id="node17" class="node">
<title>SplitBalance</title>
<ellipse fill="none" stroke="#000000" cx="1311" cy="-811" rx="60.2672" ry="18"/>
<text text-anchor="middle" x="1311" y="-806.8" font-family="Times,serif" font-size="14.00" fill="#000000">SplitBalance</text>
</g>
<!-- SplitBalance.input&#45;&gt;SplitBalance -->
<g id="edge21" class="edge">
<title>SplitBalance.input-&gt;SplitBalance</title>
<path fill="none" stroke="#000000" d="M1311,-903.6706C1311,-886.2373 1311,-859.7482 1311,-839.5489"/>
<polygon fill="#000000" stroke="#000000" points="1314.5001,-839.3566 1311,-829.3566 1307.5001,-839.3567 1314.5001,-839.3566"/>
</g>
<!-- SplitBalance.spendable -->
<g id="node18" class="node">
<title>SplitBalance.spendable</title>
<ellipse fill="none" stroke="#000000" cx="1380" cy="-700" rx="101.3221" ry="18"/>
<text text-anchor="middle" x="1380" y="-695.8" font-family="Times,serif" font-size="14.00" fill="#000000">SplitBalance.spendable</text>
</g>
<!-- SplitBalance&#45;&gt;SplitBalance.spendable -->
<g id="edge22" class="edge">
<title>SplitBalance-&gt;SplitBalance.spendable</title>
<path fill="none" stroke="#000000" d="M1322.086,-793.1659C1333.236,-775.229 1350.5638,-747.3539 1363.3625,-726.7646"/>
<polygon fill="#000000" stroke="#000000" points="1366.4054,-728.4992 1368.7122,-718.1586 1360.4604,-724.8036 1366.4054,-728.4992"/>
</g>
<!-- SplitBalance.excess -->
<g id="node19" class="node">
<title>SplitBalance.excess</title>
<ellipse fill="none" stroke="#000000" cx="1152" cy="-700" rx="87.9951" ry="18"/>
<text text-anchor="middle" x="1152" y="-695.8" font-family="Times,serif" font-size="14.00" fill="#000000">SplitBalance.excess</text>
</g>
<!-- SplitBalance&#45;&gt;SplitBalance.excess -->
<g id="edge23" class="edge">
<title>SplitBalance-&gt;SplitBalance.excess</title>
<path fill="none" stroke="#000000" d="M1287.1961,-794.3822C1260.0349,-775.4206 1215.4431,-744.2905 1184.9528,-723.0048"/>
<polygon fill="#000000" stroke="#000000" points="1186.9562,-720.1349 1176.7531,-717.2804 1182.9492,-725.8746 1186.9562,-720.1349"/>
</g>
<!-- SplitBalanceSpendable -->
<g id="node20" class="node">
<title>SplitBalanceSpendable</title>
<ellipse fill="none" stroke="#000000" cx="1390" cy="-589" rx="100.7191" ry="18"/>
<text text-anchor="middle" x="1390" y="-584.8" font-family="Times,serif" font-size="14.00" fill="#000000">SplitBalanceSpendable</text>
</g>
<!-- SplitBalance.spendable&#45;&gt;SplitBalanceSpendable -->
<g id="edge24" class="edge">
<title>SplitBalance.spendable-&gt;SplitBalanceSpendable</title>
<path fill="none" stroke="#000000" d="M1381.6513,-681.6706C1383.2219,-664.2373 1385.6083,-637.7482 1387.428,-617.5489"/>
<polygon fill="#000000" stroke="#000000" points="1390.9348,-617.6304 1388.3463,-607.3566 1383.963,-617.0022 1390.9348,-617.6304"/>
</g>
<!-- SplitBalanceExcess -->
<g id="node22" class="node">
<title>SplitBalanceExcess</title>
<ellipse fill="none" stroke="#000000" cx="1146" cy="-589" rx="87.3924" ry="18"/>
<text text-anchor="middle" x="1146" y="-584.8" font-family="Times,serif" font-size="14.00" fill="#000000">SplitBalanceExcess</text>
</g>
<!-- SplitBalance.excess&#45;&gt;SplitBalanceExcess -->
<g id="edge26" class="edge">
<title>SplitBalance.excess-&gt;SplitBalanceExcess</title>
<path fill="none" stroke="#000000" d="M1151.0092,-681.6706C1150.0669,-664.2373 1148.635,-637.7482 1147.5432,-617.5489"/>
<polygon fill="#000000" stroke="#000000" points="1151.027,-617.1531 1146.9922,-607.3566 1144.0372,-617.531 1151.027,-617.1531"/>
</g>
<!-- StateBalance.SplitSpendable -->
<g id="node21" class="node">
<title>StateBalance.SplitSpendable</title>
<ellipse fill="none" stroke="#000000" cx="1392" cy="-478" rx="122.1658" ry="18"/>
<text text-anchor="middle" x="1392" y="-473.8" font-family="Times,serif" font-size="14.00" fill="#000000">StateBalance.SplitSpendable</text>
</g>
<!-- SplitBalanceSpendable&#45;&gt;StateBalance.SplitSpendable -->
<g id="edge25" class="edge">
<title>SplitBalanceSpendable-&gt;StateBalance.SplitSpendable</title>
<path fill="none" stroke="#000000" d="M1390.3303,-570.6706C1390.6444,-553.2373 1391.1217,-526.7482 1391.4856,-506.5489"/>
<polygon fill="#000000" stroke="#000000" points="1394.9884,-506.4181 1391.6693,-496.3566 1387.9896,-506.2919 1394.9884,-506.4181"/>
</g>
<!-- StateBalance -->
<g id="node24" class="node">
<title>StateBalance</title>
<ellipse fill="none" stroke="#000000" cx="1384" cy="-367" rx="61.3896" ry="18"/>
<text text-anchor="middle" x="1384" y="-362.8" font-family="Times,serif" font-size="14.00" fill="#000000">StateBalance</text>
</g>
<!-- StateBalance.SplitSpendable&#45;&gt;StateBalance -->
<g id="edge28" class="edge">
<title>StateBalance.SplitSpendable-&gt;StateBalance</title>
<path fill="none" stroke="#000000" d="M1390.679,-459.6706C1389.4225,-442.2373 1387.5134,-415.7482 1386.0576,-395.5489"/>
<polygon fill="#000000" stroke="#000000" points="1389.5329,-395.0791 1385.323,-385.3566 1382.551,-395.5824 1389.5329,-395.0791"/>
</g>
<!-- StateBalance.SplitExcess -->
<g id="node23" class="node">
<title>StateBalance.SplitExcess</title>
<ellipse fill="none" stroke="#000000" cx="1143" cy="-478" rx="108.8387" ry="18"/>
<text text-anchor="middle" x="1143" y="-473.8" font-family="Times,serif" font-size="14.00" fill="#000000">StateBalance.SplitExcess</text>
</g>
<!-- SplitBalanceExcess&#45;&gt;StateBalance.SplitExcess -->
<g id="edge27" class="edge">
<title>SplitBalanceExcess-&gt;StateBalance.SplitExcess</title>
<path fill="none" stroke="#000000" d="M1145.5046,-570.6706C1145.0334,-553.2373 1144.3175,-526.7482 1143.7716,-506.5489"/>
<polygon fill="#000000" stroke="#000000" points="1147.2651,-506.2584 1143.4961,-496.3566 1140.2677,-506.4476 1147.2651,-506.2584"/>
</g>
<!-- StateBalance.SplitExcess&#45;&gt;StateBalance -->
<g id="edge29" class="edge">
<title>StateBalance.SplitExcess-&gt;StateBalance</title>
<path fill="none" stroke="#000000" d="M1179.8651,-461.0207C1223.4431,-440.9494 1295.8175,-407.6152 1341.6554,-386.5031"/>
<polygon fill="#000000" stroke="#000000" points="1343.3953,-389.5552 1351.014,-382.1927 1340.4669,-383.1972 1343.3953,-389.5552"/>
</g>
<!-- OrderCreated.from -->
<g id="node27" class="node">
<title>OrderCreated.from</title>
<ellipse fill="none" stroke="#000000" cx="1354" cy="-256" rx="84.5294" ry="18"/>
<text text-anchor="middle" x="1354" y="-251.8" font-family="Times,serif" font-size="14.00" fill="#000000">OrderCreated.from</text>
</g>
<!-- StateBalance&#45;&gt;OrderCreated.from -->
<g id="edge33" class="edge">
<title>StateBalance-&gt;OrderCreated.from</title>
<path fill="none" stroke="#000000" d="M1379.0461,-348.6706C1374.2843,-331.0521 1367.0228,-304.1843 1361.5425,-283.9073"/>
<polygon fill="#000000" stroke="#000000" points="1364.8496,-282.7288 1358.8617,-273.9883 1358.0921,-284.5552 1364.8496,-282.7288"/>
</g>
<!-- StateBalance.Single&#45;&gt;StateBalance -->
<g id="edge32" class="edge">
<title>StateBalance.Single-&gt;StateBalance</title>
<path fill="none" stroke="#000000" d="M1539.1585,-1369.2447C1551.9468,-1363.9727 1564.1639,-1356.5238 1573,-1346 1588.8356,-1327.1399 1583,-1316.1266 1583,-1291.5 1583,-1291.5 1583,-1291.5 1583,-422.5 1583,-394.8394 1510.7625,-380.363 1453.3332,-373.2248"/>
<polygon fill="#000000" stroke="#000000" points="1453.5109,-369.7214 1443.1678,-372.0172 1452.685,-376.6725 1453.5109,-369.7214"/>
</g>
<!-- OrderCreated -->
<g id="node28" class="node">
<title>OrderCreated</title>
<ellipse fill="none" stroke="#000000" cx="1351" cy="-145" rx="63.66" ry="18"/>
<text text-anchor="middle" x="1351" y="-140.8" font-family="Times,serif" font-size="14.00" fill="#000000">OrderCreated</text>
</g>
<!-- OrderCreated.from&#45;&gt;OrderCreated -->
<g id="edge34" class="edge">
<title>OrderCreated.from-&gt;OrderCreated</title>
<path fill="none" stroke="#000000" d="M1353.5046,-237.6706C1353.0334,-220.2373 1352.3175,-193.7482 1351.7716,-173.5489"/>
<polygon fill="#000000" stroke="#000000" points="1355.2651,-173.2584 1351.4961,-163.3566 1348.2677,-173.4476 1355.2651,-173.2584"/>
</g>
<!-- Commit.left -->
<g id="node29" class="node">
<title>Commit.left</title>
<ellipse fill="none" stroke="#000000" cx="1526" cy="-34" rx="57.9598" ry="18"/>
<text text-anchor="middle" x="1526" y="-29.8" font-family="Times,serif" font-size="14.00" fill="#000000">Commit.left</text>
</g>
<!-- OrderCreated&#45;&gt;Commit.left -->
<g id="edge35" class="edge">
<title>OrderCreated-&gt;Commit.left</title>
<path fill="none" stroke="#000000" d="M1377.1993,-128.3822C1407.7466,-109.0064 1458.3257,-76.9249 1491.9075,-55.6244"/>
<polygon fill="#000000" stroke="#000000" points="1493.9068,-58.501 1500.4767,-50.1891 1490.1574,-52.5898 1493.9068,-58.501"/>
</g>
<!-- Commit.right -->
<g id="node30" class="node">
<title>Commit.right</title>
<ellipse fill="none" stroke="#000000" cx="965" cy="-34" rx="63.2006" ry="18"/>
<text text-anchor="middle" x="965" y="-29.8" font-family="Times,serif" font-size="14.00" fill="#000000">Commit.right</text>
</g>
<!-- OrderCreated&#45;&gt;Commit.right -->
<g id="edge36" class="edge">
<title>OrderCreated-&gt;Commit.right</title>
<path fill="none" stroke="#000000" d="M1292.0175,-138.067C1203.3744,-126.7855 1040.964,-102.5115 992,-71 987.5991,-68.1678 983.6766,-64.3464 980.2773,-60.2317"/>
<polygon fill="#000000" stroke="#000000" points="983.1073,-58.1722 974.397,-52.1404 977.4447,-62.2875 983.1073,-58.1722"/>
</g>
<!-- Commit.left_fulfilled -->
<g id="node31" class="node">
<title>Commit.left_fulfilled</title>
<ellipse fill="none" stroke="#000000" cx="1140" cy="-34" rx="93.8326" ry="18"/>
<text text-anchor="middle" x="1140" y="-29.8" font-family="Times,serif" font-size="14.00" fill="#000000">Commit.left_fulfilled</text>
</g>
<!-- OrderCreated&#45;&gt;Commit.left_fulfilled -->
<g id="edge37" class="edge">
<title>OrderCreated-&gt;Commit.left_fulfilled</title>
<path fill="none" stroke="#000000" d="M1320.7688,-129.0964C1284.1137,-109.8134 1222.1643,-77.2239 1181.172,-55.6592"/>
<polygon fill="#000000" stroke="#000000" points="1182.7305,-52.5244 1172.2509,-50.9661 1179.4715,-58.7194 1182.7305,-52.5244"/>
</g>
<!-- Commit.right_fulfilled -->
<g id="node32" class="node">
<title>Commit.right_fulfilled</title>
<ellipse fill="none" stroke="#000000" cx="1351" cy="-34" rx="99.0735" ry="18"/>
<text text-anchor="middle" x="1351" y="-29.8" font-family="Times,serif" font-size="14.00" fill="#000000">Commit.right_fulfilled</text>
</g>
<!-- OrderCreated&#45;&gt;Commit.right_fulfilled -->
<g id="edge38" class="edge">
<title>OrderCreated-&gt;Commit.right_fulfilled</title>
<path fill="none" stroke="#000000" d="M1351,-126.6706C1351,-109.2373 1351,-82.7482 1351,-62.5489"/>
<polygon fill="#000000" stroke="#000000" points="1354.5001,-62.3566 1351,-52.3566 1347.5001,-62.3567 1354.5001,-62.3566"/>
</g>
<!-- Commit.left&#45;&gt;StateMachine.commit -->
<g id="edge41" class="edge">
<title>Commit.left-&gt;StateMachine.commit</title>
<path fill="none" stroke="#000000" d="M1540.8398,-51.8032C1547.9748,-62.1431 1555,-75.8019 1555,-89.5 1555,-1199.5 1555,-1199.5 1555,-1199.5 1555,-1242.8863 1246.5466,-1252.3658 1120.1007,-1254.4291"/>
<polygon fill="#000000" stroke="#000000" points="1119.8241,-1250.9328 1109.879,-1254.5861 1119.9317,-1257.932 1119.8241,-1250.9328"/>
</g>
<!-- Commit.right&#45;&gt;StateMachine.commit -->
<g id="edge42" class="edge">
<title>Commit.right-&gt;StateMachine.commit</title>
<path fill="none" stroke="#000000" d="M950.6719,-51.8805C943.783,-62.2446 937,-75.9018 937,-89.5 937,-1199.5 937,-1199.5 937,-1199.5 937,-1218.0286 982.2325,-1234.0092 1019.3353,-1244.0009"/>
<polygon fill="#000000" stroke="#000000" points="1018.4896,-1247.3973 1029.0491,-1246.5336 1020.2557,-1240.6238 1018.4896,-1247.3973"/>
</g>
<!-- Commit.left_fulfilled&#45;&gt;StateMachine.commit -->
<g id="edge43" class="edge">
<title>Commit.left_fulfilled-&gt;StateMachine.commit</title>
<path fill="none" stroke="#000000" d="M1076.2524,-47.2658C1023.4388,-59.1734 957,-76.6973 957,-89.5 957,-1199.5 957,-1199.5 957,-1199.5 957,-1228.0101 986.8178,-1241.8774 1015.4045,-1248.621"/>
<polygon fill="#000000" stroke="#000000" points="1014.908,-1252.093 1025.4137,-1250.7215 1016.3458,-1245.2422 1014.908,-1252.093"/>
</g>
<!-- Commit.right_fulfilled&#45;&gt;StateMachine.commit -->
<g id="edge44" class="edge">
<title>Commit.right_fulfilled-&gt;StateMachine.commit</title>
<path fill="none" stroke="#000000" d="M1278.114,-46.2892C1266.3773,-48.2273 1254.3566,-50.1881 1243,-52 1188.3925,-60.7124 997,-34.2018 997,-89.5 997,-330.5 997,-330.5 997,-330.5 997,-461.9121 977,-494.0879 977,-625.5 977,-1199.5 977,-1199.5 977,-1199.5 977,-1221.967 997.5705,-1235.637 1019.0428,-1243.7864"/>
<polygon fill="#000000" stroke="#000000" points="1017.9762,-1247.1206 1028.5708,-1247.0522 1020.2459,-1240.4988 1017.9762,-1247.1206"/>
</g>
<!-- Commit.excess_left&#45;&gt;StateMachine.commit -->
<g id="edge45" class="edge">
<title>Commit.excess_left-&gt;StateMachine.commit</title>
<path fill="none" stroke="#000000" d="M1184.9603,-1417.9833C1161.5941,-1385.6986 1112.5229,-1317.898 1085.6199,-1280.7268"/>
<polygon fill="#000000" stroke="#000000" points="1088.3001,-1278.4603 1079.6017,-1272.4115 1082.6295,-1282.5645 1088.3001,-1278.4603"/>
</g>
<!-- Commit.excess_right&#45;&gt;StateMachine.commit -->
<g id="edge46" class="edge">
<title>Commit.excess_right-&gt;StateMachine.commit</title>
<path fill="none" stroke="#000000" d="M1005.7687,-1417.9833C1017.6828,-1386.2708 1042.4712,-1320.2899 1056.5816,-1282.7315"/>
<polygon fill="#000000" stroke="#000000" points="1060.0181,-1283.5359 1060.2587,-1272.9438 1053.4653,-1281.0741 1060.0181,-1283.5359"/>
</g>
</g>
</svg>