<?xml version="1.0" encoding="UTF-8" ?>
<svg xmlns="http://www.w3.org/2000/svg" xmlns:xlink="http://www.w3.org/1999/xlink" width="2924pt" height="798pt" viewBox="0.00 0.00 2924.00 798.40">
<g id="graph0" class="graph" transform="scale(1 1) rotate(0) translate(4 794.4)">
<title>%0</title>
<polygon fill="#ffffff" stroke="transparent" points="-4,4 -4,-794.4 2920,-794.4 2920,4 -4,4"/>
<g id="clust1" class="cluster">
<title>cluster_Applicative</title>
<polygon fill="none" stroke="#000000" stroke-dasharray="1,5" points="8,-341 8,-782.4 1101,-782.4 1101,-341 8,-341"/>
<text text-anchor="middle" x="554.5" y="-765.8" font-family="Times,serif" font-size="14.00" fill="#000000">Applicative model</text>
</g>
<g id="clust4" class="cluster">
<title>cluster_StateMachine</title>
<polygon fill="none" stroke="#000000" stroke-dasharray="1,5" points="1109,-8 1109,-782.4 2908,-782.4 2908,-8 1109,-8"/>
<text text-anchor="middle" x="2008.5" y="-765.8" font-family="Times,serif" font-size="14.00" fill="#000000">State machine</text>
</g>
<!-- Balance -->
<g id="node1" class="node">
<title>Balance</title>
<ellipse fill="none" stroke="#000000" cx="610" cy="-731.6" rx="42.2719" ry="18"/>
<text text-anchor="middle" x="610" y="-727.4" font-family="Times,serif" font-size="14.00" fill="#000000">Balance</text>
</g>
<!-- Withdraw -->
<g id="node2" class="node">
<title>Withdraw</title>
<ellipse fill="none" stroke="#000000" cx="724" cy="-604.8" rx="49.7981" ry="18"/>
<text text-anchor="middle" x="724" y="-600.6" font-family="Times,serif" font-size="14.00" fill="#000000">Withdraw</text>
</g>
<!-- Balance&#45;&gt;Withdraw -->
<g id="edge1" class="edge">
<title>Balance-&gt;Withdraw</title>
<path fill="none" stroke="#000000" d="M634.1792,-716.6085C642.8273,-710.6435 652.3241,-703.3535 660,-695.6 679.24,-676.1657 696.8012,-650.4031 708.6407,-631.2851"/>
<polygon fill="#000000" stroke="#000000" points="711.7815,-632.8558 713.9754,-622.4905 705.7965,-629.2253 711.7815,-632.8558"/>
<text text-anchor="middle" x="719.7111" y="-664" font-family="Times,serif" font-size="14.00" fill="#000000">Withdraws</text>
</g>
<!-- Order -->
<g id="node3" class="node">
<title>Order</title>
<ellipse fill="none" stroke="#000000" cx="602" cy="-604.8" rx="33.6054" ry="18"/>
<text text-anchor="middle" x="602" y="-600.6" font-family="Times,serif" font-size="14.00" fill="#000000">Order</text>
</g>
<!-- Balance&#45;&gt;Order -->
<g id="edge2" class="edge">
<title>Balance-&gt;Order</title>
<path fill="none" stroke="#000000" d="M597.7571,-714.1924C591.2122,-703.8065 583.8204,-690.0565 580.4326,-676.6 576.6227,-661.4668 581.1125,-644.7593 586.9633,-631.2717"/>
<polygon fill="#000000" stroke="#000000" points="590.1989,-632.6187 591.3649,-622.0883 583.8865,-629.5932 590.1989,-632.6187"/>
<text text-anchor="middle" x="614.7837" y="-664" font-family="Times,serif" font-size="14.00" fill="#000000">Create order</text>
</g>
<!-- Join -->
<g id="node4" class="node">
<title>Join</title>
<ellipse fill="none" stroke="#000000" cx="904" cy="-604.8" rx="27.2661" ry="18"/>
<text text-anchor="middle" x="904" y="-600.6" font-family="Times,serif" font-size="14.00" fill="#000000">Join</text>
</g>
<!-- Balance&#45;&gt;Join -->
<g id="edge3" class="edge">
<title>Balance-&gt;Join</title>
<path fill="none" stroke="#000000" d="M651.4715,-727.9197C686.3157,-723.6171 736.729,-714.5072 777,-695.6 800.3237,-684.6496 801.7787,-674.978 822.6002,-659.8 839.8819,-647.2024 859.7629,-633.7505 875.5508,-623.3034"/>
<polygon fill="#000000" stroke="#000000" points="877.8948,-625.9508 884.3229,-617.5288 874.0458,-620.1039 877.8948,-625.9508"/>
<text text-anchor="middle" x="884.1999" y="-664" font-family="Times,serif" font-size="14.00" fill="#000000">Join balances together</text>
</g>
<!-- Cancel -->
<g id="node5" class="node">
<title>Cancel</title>
<ellipse fill="none" stroke="#000000" cx="525" cy="-478" rx="37.6986" ry="18"/>
<text text-anchor="middle" x="525" y="-473.8" font-family="Times,serif" font-size="14.00" fill="#000000">Cancel</text>
</g>
<!-- Order&#45;&gt;Cancel -->
<g id="edge5" class="edge">
<title>Order-&gt;Cancel</title>
<path fill="none" stroke="#000000" d="M582.2448,-590.2313C569.8982,-580.1556 554.5924,-565.7318 545.0932,-549.8 537.1695,-536.5106 532.2646,-519.978 529.287,-506.1281"/>
<polygon fill="#000000" stroke="#000000" points="532.695,-505.316 527.3676,-496.158 525.8213,-506.6394 532.695,-505.316"/>
<text text-anchor="middle" x="580.9534" y="-537.2" font-family="Times,serif" font-size="14.00" fill="#000000">Cancel order</text>
</g>
<!-- Commit -->
<g id="node6" class="node">
<title>Commit</title>
<ellipse fill="none" stroke="#000000" cx="645" cy="-478" rx="42.8945" ry="18"/>
<text text-anchor="middle" x="645" y="-473.8" font-family="Times,serif" font-size="14.00" fill="#000000">Commit</text>
</g>
<!-- Order&#45;&gt;Commit -->
<g id="edge11" class="edge">
<title>Order-&gt;Commit</title>
<path fill="none" stroke="#000000" d="M608.0696,-586.9016C615.2318,-565.7816 627.2224,-530.4234 635.5912,-505.745"/>
<polygon fill="#000000" stroke="#000000" points="638.925,-506.8123 638.822,-496.2179 632.2958,-504.5642 638.925,-506.8123"/>
</g>
<!-- Join&#45;&gt;Balance -->
<g id="edge4" class="edge">
<title>Join-&gt;Balance</title>
<path fill="none" stroke="#000000" d="M921.9992,-618.3689C939.9034,-633.4887 962.6212,-658.2227 947,-676.6 928.7234,-698.1013 751.1958,-718.0452 661.4288,-726.8533"/>
<polygon fill="#000000" stroke="#000000" points="661.0702,-723.3715 651.4552,-727.8215 661.7467,-730.3388 661.0702,-723.3715"/>
<text text-anchor="middle" x="1014.1999" y="-664" font-family="Times,serif" font-size="14.00" fill="#000000">Join balances together</text>
</g>
<!-- Cancel&#45;&gt;Balance -->
<g id="edge6" class="edge">
<title>Cancel-&gt;Balance</title>
<path fill="none" stroke="#000000" d="M516.7958,-495.608C507.4467,-516.73 492.7332,-553.4696 487.0932,-586.8 484.4237,-602.5757 480.5237,-608.2109 487.0932,-622.8 504.9606,-662.4791 545.2436,-693.5332 574.8431,-712.1338"/>
<polygon fill="#000000" stroke="#000000" points="573.2892,-715.2855 583.6496,-717.5023 576.9329,-709.3086 573.2892,-715.2855"/>
<text text-anchor="middle" x="522.9534" y="-600.6" font-family="Times,serif" font-size="14.00" fill="#000000">Cancel order</text>
</g>
<!-- Commit&#45;&gt;Balance -->
<g id="edge12" class="edge">
<title>Commit-&gt;Balance</title>
<path fill="none" stroke="#000000" d="M649.3571,-495.9179C652.0518,-508.551 655,-525.9112 655,-541.4 655,-668.2 655,-668.2 655,-668.2 655,-683.1888 646.5327,-697.1035 636.9439,-708.0556"/>
<polygon fill="#000000" stroke="#000000" points="634.2339,-705.826 629.8686,-715.4798 639.3013,-710.6553 634.2339,-705.826"/>
</g>
<!-- CommitLeftFilledToBalance -->
<g id="node7" class="node">
<title>CommitLeftFilledToBalance</title>
<ellipse fill="none" stroke="#000000" cx="970" cy="-367" rx="123.2862" ry="18"/>
<text text-anchor="middle" x="970" y="-362.8" font-family="Times,serif" font-size="14.00" fill="#000000">CommitLeftFilledToBalance</text>
</g>
<!-- Commit&#45;&gt;CommitLeftFilledToBalance -->
<g id="edge13" class="edge">
<title>Commit-&gt;CommitLeftFilledToBalance</title>
<path fill="none" stroke="#000000" d="M668.8251,-462.7559C696.4483,-445.7463 743.8505,-418.5755 788,-403 814.1056,-393.7902 843.1959,-386.7067 870.3246,-381.3599"/>
<polygon fill="#000000" stroke="#000000" points="871.0565,-384.7834 880.2214,-379.4679 869.742,-377.908 871.0565,-384.7834"/>
</g>
<!-- CommitRightFilledToBalance -->
<g id="node8" class="node">
<title>CommitRightFilledToBalance</title>
<ellipse fill="none" stroke="#000000" cx="417" cy="-367" rx="128.5458" ry="18"/>
<text text-anchor="middle" x="417" y="-362.8" font-family="Times,serif" font-size="14.00" fill="#000000">CommitRightFilledToBalance</text>
</g>
<!-- Commit&#45;&gt;CommitRightFilledToBalance -->
<g id="edge14" class="edge">
<title>Commit-&gt;CommitRightFilledToBalance</title>
<path fill="none" stroke="#000000" d="M617.0427,-464.3892C578.3287,-445.5416 507.9638,-411.285 461.854,-388.8368"/>
<polygon fill="#000000" stroke="#000000" points="463.2108,-385.6047 452.6876,-384.3742 460.1467,-391.8984 463.2108,-385.6047"/>
</g>
<!-- CommitLeftExcessToBalance -->
<g id="node9" class="node">
<title>CommitLeftExcessToBalance</title>
<ellipse fill="none" stroke="#000000" cx="143" cy="-367" rx="127.3421" ry="18"/>
<text text-anchor="middle" x="143" y="-362.8" font-family="Times,serif" font-size="14.00" fill="#000000">CommitLeftExcessToBalance</text>
</g>
<!-- Commit&#45;&gt;CommitLeftExcessToBalance -->
<g id="edge15" class="edge">
<title>Commit-&gt;CommitLeftExcessToBalance</title>
<path fill="none" stroke="#000000" d="M608.286,-468.7323C596.6942,-465.8639 583.8264,-462.7393 572,-460 451.4857,-432.0852 311.322,-402.1799 224.8799,-384.0314"/>
<polygon fill="#000000" stroke="#000000" points="225.3749,-380.5592 214.8694,-381.9319 223.938,-387.4101 225.3749,-380.5592"/>
</g>
<!-- CommitRightExcessToBalance -->
<g id="node10" class="node">
<title>CommitRightExcessToBalance</title>
<ellipse fill="none" stroke="#000000" cx="696" cy="-367" rx="132.6021" ry="18"/>
<text text-anchor="middle" x="696" y="-362.8" font-family="Times,serif" font-size="14.00" fill="#000000">CommitRightExcessToBalance</text>
</g>
<!-- Commit&#45;&gt;CommitRightExcessToBalance -->
<g id="edge16" class="edge">
<title>Commit-&gt;CommitRightExcessToBalance</title>
<path fill="none" stroke="#000000" d="M653.194,-460.1659C661.3614,-442.3899 674.0134,-414.8531 683.4474,-394.3203"/>
<polygon fill="#000000" stroke="#000000" points="686.6622,-395.7066 687.6569,-385.1586 680.3014,-392.7841 686.6622,-395.7066"/>
</g>
<!-- CommitLeftFilledToBalance&#45;&gt;Balance -->
<g id="edge7" class="edge">
<title>CommitLeftFilledToBalance-&gt;Balance</title>
<path fill="none" stroke="#000000" d="M880.7222,-379.4457C836.733,-388.177 793,-402.01 793,-422.5 793,-568.3 793,-568.3 793,-568.3 793,-619.4592 792.4406,-642.8423 754,-676.6 727.1719,-700.1599 689.1953,-714.1013 658.9775,-722.0507"/>
<polygon fill="#000000" stroke="#000000" points="657.9122,-718.7091 649.0545,-724.5221 659.604,-725.5016 657.9122,-718.7091"/>
<text text-anchor="middle" x="845.0989" y="-537.2" font-family="Times,serif" font-size="14.00" fill="#000000">Results to Balance</text>
</g>
<!-- CommitRightFilledToBalance&#45;&gt;Balance -->
<g id="edge8" class="edge">
<title>CommitRightFilledToBalance-&gt;Balance</title>
<path fill="none" stroke="#000000" d="M328.2195,-380.0799C285.7429,-388.9276 244,-402.6677 244,-422.5 244,-668.2 244,-668.2 244,-668.2 244,-699.7241 457.525,-720.0792 558.3911,-727.936"/>
<polygon fill="#000000" stroke="#000000" points="558.1331,-731.4264 568.3715,-728.7012 558.6683,-724.4469 558.1331,-731.4264"/>
<text text-anchor="middle" x="296.0989" y="-537.2" font-family="Times,serif" font-size="14.00" fill="#000000">Results to Balance</text>
</g>
<!-- CommitLeftExcessToBalance&#45;&gt;Balance -->
<g id="edge9" class="edge">
<title>CommitLeftExcessToBalance-&gt;Balance</title>
<path fill="none" stroke="#000000" d="M122.1299,-384.8904C112.8574,-394.8545 104,-408.1327 104,-422.5 104,-668.2 104,-668.2 104,-668.2 104,-713.5626 428.3136,-726.9273 557.6598,-730.4537"/>
<polygon fill="#000000" stroke="#000000" points="557.6403,-733.9543 567.729,-730.719 557.8247,-726.9567 557.6403,-733.9543"/>
<text text-anchor="middle" x="156.0989" y="-537.2" font-family="Times,serif" font-size="14.00" fill="#000000">Results to Balance</text>
</g>
<!-- CommitRightExcessToBalance&#45;&gt;Balance -->
<g id="edge10" class="edge">
<title>CommitRightExcessToBalance-&gt;Balance</title>
<path fill="none" stroke="#000000" d="M600.2694,-379.5057C508.5556,-392.1527 384,-411.3763 384,-422.5 384,-668.2 384,-668.2 384,-668.2 384,-704.1253 491.2059,-720.6388 557.9438,-727.4383"/>
<polygon fill="#000000" stroke="#000000" points="557.992,-730.9595 568.2847,-728.4476 558.6721,-723.9926 557.992,-730.9595"/>
<text text-anchor="middle" x="436.0989" y="-537.2" font-family="Times,serif" font-size="14.00" fill="#000000">Results to Balance</text>
</g>
<!-- StateMachine.commit -->
<g id="node11" class="node">
<title>StateMachine.commit</title>
<ellipse fill="none" stroke="#000000" cx="1677" cy="-731.6" rx="42.8945" ry="18"/>
<text text-anchor="middle" x="1677" y="-727.4" font-family="Times,serif" font-size="14.00" fill="#000000">Commit</text>
</g>
<!-- CreateBalanceOrigin.CommitSpendableLeft -->
<g id="node20" class="node">
<title>CreateBalanceOrigin.CommitSpendableLeft</title>
<ellipse fill="none" stroke="#000000" cx="1677" cy="-604.8" rx="182.8603" ry="18"/>
<text text-anchor="middle" x="1677" y="-600.6" font-family="Times,serif" font-size="14.00" fill="#000000">CreateBalanceOrigin.CommitSpendableLeft</text>
</g>
<!-- StateMachine.commit&#45;&gt;CreateBalanceOrigin.CommitSpendableLeft -->
<g id="edge27" class="edge">
<title>StateMachine.commit-&gt;CreateBalanceOrigin.CommitSpendableLeft</title>
<path fill="none" stroke="#000000" d="M1677,-713.4327C1677,-692.4352 1677,-657.6261 1677,-633.079"/>
<polygon fill="#000000" stroke="#000000" points="1680.5001,-632.9336 1677,-622.9336 1673.5001,-632.9337 1680.5001,-632.9336"/>
</g>
<!-- CreateBalanceOrigin.CommitSpendableRight -->
<g id="node21" class="node">
<title>CreateBalanceOrigin.CommitSpendableRight</title>
<ellipse fill="none" stroke="#000000" cx="2434" cy="-604.8" rx="188.1202" ry="18"/>
<text text-anchor="middle" x="2434" y="-600.6" font-family="Times,serif" font-size="14.00" fill="#000000">CreateBalanceOrigin.CommitSpendableRight</text>
</g>
<!-- StateMachine.commit&#45;&gt;CreateBalanceOrigin.CommitSpendableRight -->
<g id="edge28" class="edge">
<title>StateMachine.commit-&gt;CreateBalanceOrigin.CommitSpendableRight</title>
<path fill="none" stroke="#000000" d="M1716.8991,-724.9168C1830.9618,-705.8109 2161.0982,-650.512 2330.7189,-622.0999"/>
<polygon fill="#000000" stroke="#000000" points="2331.3772,-625.5385 2340.6615,-620.4345 2330.2207,-618.6347 2331.3772,-625.5385"/>
</g>
<!-- CreateBalanceOrigin.CommitExcessLeft -->
<g id="node22" class="node">
<title>CreateBalanceOrigin.CommitExcessLeft</title>
<ellipse fill="none" stroke="#000000" cx="1307" cy="-604.8" rx="169.5333" ry="18"/>
<text text-anchor="middle" x="1307" y="-600.6" font-family="Times,serif" font-size="14.00" fill="#000000">CreateBalanceOrigin.CommitExcessLeft</text>
</g>
<!-- StateMachine.commit&#45;&gt;CreateBalanceOrigin.CommitExcessLeft -->
<g id="edge29" class="edge">
<title>StateMachine.commit-&gt;CreateBalanceOrigin.CommitExcessLeft</title>
<path fill="none" stroke="#000000" d="M1634.0636,-730.3435C1508.5566,-726.4636 1150.0596,-713.8259 1133,-695.6 1100.698,-661.0898 1154.4993,-637.318 1210.5716,-622.7804"/>
<polygon fill="#000000" stroke="#000000" points="1211.4551,-626.1673 1220.3098,-620.3497 1209.7598,-619.3757 1211.4551,-626.1673"/>
</g>
<!-- CreateBalanceOrigin.CommitExcessRight -->
<g id="node23" class="node">
<title>CreateBalanceOrigin.CommitExcessRight</title>
<ellipse fill="none" stroke="#000000" cx="2053" cy="-604.8" rx="174.7931" ry="18"/>
<text text-anchor="middle" x="2053" y="-600.6" font-family="Times,serif" font-size="14.00" fill="#000000">CreateBalanceOrigin.CommitExcessRight</text>
</g>
<!-- StateMachine.commit&#45;&gt;CreateBalanceOrigin.CommitExcessRight -->
<g id="edge30" class="edge">
<title>StateMachine.commit-&gt;CreateBalanceOrigin.CommitExcessRight</title>
<path fill="none" stroke="#000000" d="M1710.3675,-720.3473C1773.6651,-699.0012 1911.9995,-652.3502 1992.192,-625.3065"/>
<polygon fill="#000000" stroke="#000000" points="1993.3172,-628.6208 2001.6744,-622.1087 1991.0803,-621.9878 1993.3172,-628.6208"/>
</g>
<!-- CreateBalance -->
<g id="node12" class="node">
<title>CreateBalance</title>
<ellipse fill="none" stroke="#000000" cx="2797" cy="-731.6" rx="67.1695" ry="18"/>
<text text-anchor="middle" x="2797" y="-727.4" font-family="Times,serif" font-size="14.00" fill="#000000">CreateBalance</text>
</g>
<!-- CreateBalanceOrigin.Single -->
<g id="node13" class="node">
<title>CreateBalanceOrigin.Single</title>
<ellipse fill="none" stroke="#000000" cx="2760" cy="-604.8" rx="119.7772" ry="18"/>
<text text-anchor="middle" x="2760" y="-600.6" font-family="Times,serif" font-size="14.00" fill="#000000">CreateBalanceOrigin.Single</text>
</g>
<!-- CreateBalance&#45;&gt;CreateBalanceOrigin.Single -->
<g id="edge17" class="edge">
<title>CreateBalance-&gt;CreateBalanceOrigin.Single</title>
<path fill="none" stroke="#000000" d="M2791.6988,-713.4327C2785.5443,-692.3411 2775.3234,-657.3136 2768.1556,-632.7494"/>
<polygon fill="#000000" stroke="#000000" points="2771.4525,-631.5529 2765.2914,-622.9336 2764.7327,-633.5137 2771.4525,-631.5529"/>
</g>
<!-- StateBalance -->
<g id="node18" class="node">
<title>StateBalance</title>
<ellipse fill="none" stroke="#000000" cx="2219" cy="-145" rx="61.3896" ry="18"/>
<text text-anchor="middle" x="2219" y="-140.8" font-family="Times,serif" font-size="14.00" fill="#000000">StateBalance</text>
</g>
<!-- CreateBalance&#45;&gt;StateBalance -->
<g id="edge24" class="edge">
<title>CreateBalance-&gt;StateBalance</title>
<path fill="none" stroke="#000000" d="M2848.2988,-719.8085C2873.6988,-710.6145 2899,-694.7842 2899,-668.2 2899,-668.2 2899,-668.2 2899,-200.5 2899,-170.2143 2464.8606,-152.8932 2290.3579,-147.1542"/>
<polygon fill="#000000" stroke="#000000" points="2290.3526,-143.6523 2280.244,-146.8251 2290.1249,-150.6486 2290.3526,-143.6523"/>
</g>
<!-- CreateBalanceOrigin -->
<g id="node14" class="node">
<title>CreateBalanceOrigin</title>
<ellipse fill="none" stroke="#000000" cx="2053" cy="-478" rx="92.59" ry="18"/>
<text text-anchor="middle" x="2053" y="-473.8" font-family="Times,serif" font-size="14.00" fill="#000000">CreateBalanceOrigin</text>
</g>
<!-- CreateBalanceOrigin.Single&#45;&gt;CreateBalanceOrigin -->
<g id="edge18" class="edge">
<title>CreateBalanceOrigin.Single-&gt;CreateBalanceOrigin</title>
<path fill="none" stroke="#000000" d="M2682.9927,-590.9888C2547.4349,-566.6766 2267.6591,-516.499 2131.2355,-492.0315"/>
<polygon fill="#000000" stroke="#000000" points="2131.7281,-488.5641 2121.2673,-490.2437 2130.4924,-495.4541 2131.7281,-488.5641"/>
</g>
<!-- SplitBalance -->
<g id="node15" class="node">
<title>SplitBalance</title>
<ellipse fill="none" stroke="#000000" cx="2242" cy="-367" rx="60.2672" ry="18"/>
<text text-anchor="middle" x="2242" y="-362.8" font-family="Times,serif" font-size="14.00" fill="#000000">SplitBalance</text>
</g>
<!-- CreateBalanceOrigin&#45;&gt;SplitBalance -->
<g id="edge19" class="edge">
<title>CreateBalanceOrigin-&gt;SplitBalance</title>
<path fill="none" stroke="#000000" d="M2082.1171,-460.8995C2115.3362,-441.3899 2169.6978,-409.4632 2205.6645,-388.3399"/>
<polygon fill="#000000" stroke="#000000" points="2207.5378,-391.2987 2214.3882,-383.2165 2203.9928,-385.2627 2207.5378,-391.2987"/>
</g>
<!-- CreateBalanceOrigin.Join -->
<g id="node24" class="node">
<title>CreateBalanceOrigin.Join</title>
<ellipse fill="none" stroke="#000000" cx="2053" cy="-367" rx="111.1109" ry="18"/>
<text text-anchor="middle" x="2053" y="-362.8" font-family="Times,serif" font-size="14.00" fill="#000000">CreateBalanceOrigin.Join</text>
</g>
<!-- CreateBalanceOrigin&#45;&gt;CreateBalanceOrigin.Join -->
<g id="edge35" class="edge">
<title>CreateBalanceOrigin-&gt;CreateBalanceOrigin.Join</title>
<path fill="none" stroke="#000000" d="M2047.8337,-459.6706C2046.0339,-442.1329 2045.7681,-415.4306 2047.0365,-395.1867"/>
<polygon fill="#000000" stroke="#000000" points="2050.5437,-395.24 2047.869,-384.9883 2043.5669,-394.6704 2050.5437,-395.24"/>
</g>
<!-- Withdrawal -->
<g id="node25" class="node">
<title>Withdrawal</title>
<ellipse fill="none" stroke="#000000" cx="1867" cy="-367" rx="56.7387" ry="18"/>
<text text-anchor="middle" x="1867" y="-362.8" font-family="Times,serif" font-size="14.00" fill="#000000">Withdrawal</text>
</g>
<!-- CreateBalanceOrigin&#45;&gt;Withdrawal -->
<g id="edge37" class="edge">
<title>CreateBalanceOrigin-&gt;Withdrawal</title>
<path fill="none" stroke="#000000" d="M2023.9375,-460.6563C1991.2043,-441.1219 1937.9891,-409.3644 1902.7401,-388.3288"/>
<polygon fill="#000000" stroke="#000000" points="1904.129,-385.0818 1893.7482,-382.9627 1900.5418,-391.0928 1904.129,-385.0818"/>
</g>
<!-- SplitBalanceSpendable -->
<g id="node16" class="node">
<title>SplitBalanceSpendable</title>
<ellipse fill="none" stroke="#000000" cx="2356" cy="-256" rx="100.7191" ry="18"/>
<text text-anchor="middle" x="2356" y="-251.8" font-family="Times,serif" font-size="14.00" fill="#000000">SplitBalanceSpendable</text>
</g>
<!-- SplitBalance&#45;&gt;SplitBalanceSpendable -->
<g id="edge20" class="edge">
<title>SplitBalance-&gt;SplitBalanceSpendable</title>
<path fill="none" stroke="#000000" d="M2259.8125,-349.6563C2278.7464,-331.2206 2308.8613,-301.8982 2330.349,-280.976"/>
<polygon fill="#000000" stroke="#000000" points="2332.8342,-283.4413 2337.5572,-273.9574 2327.9508,-278.426 2332.8342,-283.4413"/>
</g>
<!-- SplitBalanceSpendExcess -->
<g id="node17" class="node">
<title>SplitBalanceSpendExcess</title>
<ellipse fill="none" stroke="#000000" cx="2126" cy="-256" rx="111.1731" ry="18"/>
<text text-anchor="middle" x="2126" y="-251.8" font-family="Times,serif" font-size="14.00" fill="#000000">SplitBalanceSpendExcess</text>
</g>
<!-- SplitBalance&#45;&gt;SplitBalanceSpendExcess -->
<g id="edge21" class="edge">
<title>SplitBalance-&gt;SplitBalanceSpendExcess</title>
<path fill="none" stroke="#000000" d="M2223.875,-349.6563C2204.6089,-331.2206 2173.9657,-301.8982 2152.101,-280.976"/>
<polygon fill="#000000" stroke="#000000" points="2154.4112,-278.3423 2144.7663,-273.9574 2149.5716,-283.3999 2154.4112,-278.3423"/>
</g>
<!-- SplitBalanceSpendable&#45;&gt;StateBalance -->
<g id="edge22" class="edge">
<title>SplitBalanceSpendable-&gt;StateBalance</title>
<path fill="none" stroke="#000000" d="M2334.2919,-238.4117C2311.008,-219.5466 2273.9076,-189.4872 2248.105,-168.5814"/>
<polygon fill="#000000" stroke="#000000" points="2250.1295,-165.7171 2240.1563,-162.1413 2245.7228,-171.156 2250.1295,-165.7171"/>
</g>
<!-- SplitBalanceSpendExcess&#45;&gt;StateBalance -->
<g id="edge23" class="edge">
<title>SplitBalanceSpendExcess-&gt;StateBalance</title>
<path fill="none" stroke="#000000" d="M2141.3571,-237.6706C2156.7513,-219.2968 2180.5736,-190.8638 2197.7716,-170.3371"/>
<polygon fill="#000000" stroke="#000000" points="2200.4956,-172.5358 2204.235,-162.6228 2195.1299,-168.0402 2200.4956,-172.5358"/>
</g>
<!-- OrderCreated -->
<g id="node19" class="node">
<title>OrderCreated</title>
<ellipse fill="none" stroke="#000000" cx="1596" cy="-34" rx="63.66" ry="18"/>
<text text-anchor="middle" x="1596" y="-29.8" font-family="Times,serif" font-size="14.00" fill="#000000">OrderCreated</text>
</g>
<!-- StateBalance&#45;&gt;OrderCreated -->
<g id="edge25" class="edge">
<title>StateBalance-&gt;OrderCreated</title>
<path fill="none" stroke="#000000" d="M2166.4203,-135.6319C2052.5728,-115.3476 1783.5828,-67.4217 1660.0532,-45.4124"/>
<polygon fill="#000000" stroke="#000000" points="1660.4455,-41.9272 1649.9866,-43.6188 1659.2176,-48.8187 1660.4455,-41.9272"/>
</g>
<!-- OrderCreated&#45;&gt;StateMachine.commit -->
<g id="edge26" class="edge">
<title>OrderCreated-&gt;StateMachine.commit</title>
<path fill="none" stroke="#000000" d="M1532.0308,-34.9182C1401.7801,-37.6416 1118,-48.3026 1118,-89.5 1118,-568.3 1118,-568.3 1118,-568.3 1118,-592.9266 1110.7102,-605.2634 1128,-622.8 1197.1033,-692.89 1500.6672,-720.1841 1624.3143,-728.5216"/>
<polygon fill="#000000" stroke="#000000" points="1624.4484,-732.038 1634.6568,-729.2029 1624.9086,-725.0531 1624.4484,-732.038"/>
</g>
<!-- CreateBalanceOrigin.CommitSpendableLeft&#45;&gt;CreateBalanceOrigin -->
<g id="edge31" class="edge">
<title>CreateBalanceOrigin.CommitSpendableLeft-&gt;CreateBalanceOrigin</title>
<path fill="none" stroke="#000000" d="M1728.4928,-587.4349C1798.7024,-563.7578 1924.0214,-521.496 1996.6659,-496.9978"/>
<polygon fill="#000000" stroke="#000000" points="1998.1983,-500.1747 2006.5555,-493.6627 1995.9614,-493.5418 1998.1983,-500.1747"/>
</g>
<!-- CreateBalanceOrigin.CommitSpendableRight&#45;&gt;CreateBalanceOrigin -->
<g id="edge32" class="edge">
<title>CreateBalanceOrigin.CommitSpendableRight-&gt;CreateBalanceOrigin</title>
<path fill="none" stroke="#000000" d="M2381.8224,-587.4349C2310.4362,-563.6769 2182.8256,-521.207 2109.3308,-496.7474"/>
<polygon fill="#000000" stroke="#000000" points="2110.3623,-493.402 2099.7688,-493.565 2108.1518,-500.0438 2110.3623,-493.402"/>
</g>
<!-- CreateBalanceOrigin.CommitExcessLeft&#45;&gt;CreateBalanceOrigin -->
<g id="edge33" class="edge">
<title>CreateBalanceOrigin.CommitExcessLeft-&gt;CreateBalanceOrigin</title>
<path fill="none" stroke="#000000" d="M1396.985,-589.505C1543.8632,-564.5396 1832.7742,-515.4325 1972.9467,-491.6069"/>
<polygon fill="#000000" stroke="#000000" points="1973.914,-494.9928 1983.1861,-489.8665 1972.741,-488.0918 1973.914,-494.9928"/>
</g>
<!-- CreateBalanceOrigin.CommitExcessRight&#45;&gt;CreateBalanceOrigin -->
<g id="edge34" class="edge">
<title>CreateBalanceOrigin.CommitExcessRight-&gt;CreateBalanceOrigin</title>
<path fill="none" stroke="#000000" d="M2053,-586.6327C2053,-565.6352 2053,-530.8261 2053,-506.279"/>
<polygon fill="#000000" stroke="#000000" points="2056.5001,-506.1336 2053,-496.1336 2049.5001,-506.1337 2056.5001,-506.1336"/>
</g>
<!-- CreateBalanceOrigin.Join&#45;&gt;CreateBalanceOrigin -->
<g id="edge36" class="edge">
<title>CreateBalanceOrigin.Join-&gt;CreateBalanceOrigin</title>
<path fill="none" stroke="#000000" d="M2058.131,-384.9883C2059.9592,-402.4864 2060.2391,-429.3363 2058.9707,-449.698"/>
<polygon fill="#000000" stroke="#000000" points="2055.4817,-449.4215 2058.1663,-459.6706 2062.4591,-449.9844 2055.4817,-449.4215"/>
</g>
</g>
</svg>